<svg width="656" height="254" viewBox="0 0 656 254" version="1.1" xmlns="http://www.w3.org/2000/svg" xmlns:xlink="http://www.w3.org/1999/xlink" xmlns:figma="http://www.figma.com/figma/ns">
<title>memory</title>
<desc>Created using Figma</desc>
<g id="Canvas" transform="translate(-1785 -502)" figma:type="canvas">
<mask id="mask0_alpha" mask-type="alpha">
<path d="M 1785 502L 2441 502L 2441 756L 1785 756L 1785 502Z" fill="#FFFFFF"/>
</mask>
<g id="memory" style="mix-blend-mode:normal;" mask="url(#mask0_alpha)" figma:type="frame">
<g id="Component" style="mix-blend-mode:normal;" figma:type="symbol">
<g id="Rectangle 4" style="mix-blend-mode:normal;" figma:type="rounded-rectangle">
<mask id="mask1_outline_ins">
<use xlink:href="#path0_fill" fill="white" transform="translate(1785 572)"/>
</mask>
<g mask="url(#mask1_outline_ins)">
<use xlink:href="#path1_stroke_2x" transform="translate(1785 572)" fill="#333333" style="mix-blend-mode:normal;"/>
</g>
</g>
<g id="00" style="mix-blend-mode:normal;" figma:type="text">
<use xlink:href="#path2_fill" transform="translate(1785 572)" fill="#333333" style="mix-blend-mode:normal;"/>
</g>
</g>
<g id="Component" style="mix-blend-mode:normal;" figma:type="instance">
<g id="Rectangle 4" style="mix-blend-mode:normal;" figma:type="rounded-rectangle">
<mask id="mask2_outline_ins">
<use xlink:href="#path3_fill" fill="white" transform="translate(1822 572)"/>
</mask>
<g mask="url(#mask2_outline_ins)">
<use xlink:href="#path4_stroke_2x" transform="translate(1822 572)" fill="#333333" style="mix-blend-mode:normal;"/>
</g>
</g>
<g id="00" style="mix-blend-mode:normal;" figma:type="text">
<use xlink:href="#path5_fill" transform="translate(1822 572)" fill="#333333" style="mix-blend-mode:normal;"/>
</g>
</g>
<g id="Component" style="mix-blend-mode:normal;" figma:type="instance">
<g id="Rectangle 4" style="mix-blend-mode:normal;" figma:type="rounded-rectangle">
<mask id="mask3_outline_ins">
<use xlink:href="#path3_fill" fill="white" transform="translate(1859 572)"/>
</mask>
<g mask="url(#mask3_outline_ins)">
<use xlink:href="#path4_stroke_2x" transform="translate(1859 572)" fill="#333333" style="mix-blend-mode:normal;"/>
</g>
</g>
<g id="00" style="mix-blend-mode:normal;" figma:type="text">
<use xlink:href="#path5_fill" transform="translate(1859 572)" fill="#333333" style="mix-blend-mode:normal;"/>
</g>
</g>
<g id="Component" style="mix-blend-mode:normal;" figma:type="instance">
<g id="Rectangle 4" style="mix-blend-mode:normal;" figma:type="rounded-rectangle">
<mask id="mask4_outline_ins">
<use xlink:href="#path3_fill" fill="white" transform="translate(1896 572)"/>
</mask>
<g mask="url(#mask4_outline_ins)">
<use xlink:href="#path4_stroke_2x" transform="translate(1896 572)" fill="#333333" style="mix-blend-mode:normal;"/>
</g>
</g>
<g id="00" style="mix-blend-mode:normal;" figma:type="text">
<use xlink:href="#path5_fill" transform="translate(1896 572)" fill="#333333" style="mix-blend-mode:normal;"/>
</g>
</g>
<g id="Component" style="mix-blend-mode:normal;" figma:type="instance">
<g id="Rectangle 4" style="mix-blend-mode:normal;" figma:type="rounded-rectangle">
<mask id="mask5_outline_ins">
<use xlink:href="#path3_fill" fill="white" transform="translate(1933 572)"/>
</mask>
<g mask="url(#mask5_outline_ins)">
<use xlink:href="#path4_stroke_2x" transform="translate(1933 572)" fill="#333333" style="mix-blend-mode:normal;"/>
</g>
</g>
<g id="00" style="mix-blend-mode:normal;" figma:type="text">
<use xlink:href="#path5_fill" transform="translate(1933 572)" fill="#333333" style="mix-blend-mode:normal;"/>
</g>
</g>
<g id="Component" style="mix-blend-mode:normal;" figma:type="instance">
<g id="Rectangle 4" style="mix-blend-mode:normal;" figma:type="rounded-rectangle">
<mask id="mask6_outline_ins">
<use xlink:href="#path3_fill" fill="white" transform="translate(1970 572)"/>
</mask>
<g mask="url(#mask6_outline_ins)">
<use xlink:href="#path4_stroke_2x" transform="translate(1970 572)" fill="#333333" style="mix-blend-mode:normal;"/>
</g>
</g>
<g id="00" style="mix-blend-mode:normal;" figma:type="text">
<use xlink:href="#path5_fill" transform="translate(1970 572)" fill="#333333" style="mix-blend-mode:normal;"/>
</g>
</g>
<g id="Component" style="mix-blend-mode:normal;" figma:type="instance">
<g id="Rectangle 4" style="mix-blend-mode:normal;" figma:type="rounded-rectangle">
<mask id="mask7_outline_ins">
<use xlink:href="#path3_fill" fill="white" transform="translate(2007 572)"/>
</mask>
<g mask="url(#mask7_outline_ins)">
<use xlink:href="#path4_stroke_2x" transform="translate(2007 572)" fill="#333333" style="mix-blend-mode:normal;"/>
</g>
</g>
<g id="00" style="mix-blend-mode:normal;" figma:type="text">
<use xlink:href="#path5_fill" transform="translate(2007 572)" fill="#333333" style="mix-blend-mode:normal;"/>
</g>
</g>
<g id="Component" style="mix-blend-mode:normal;" figma:type="instance">
<g id="Rectangle 4" style="mix-blend-mode:normal;" figma:type="rounded-rectangle">
<mask id="mask8_outline_ins">
<use xlink:href="#path3_fill" fill="white" transform="translate(2044 572)"/>
</mask>
<g mask="url(#mask8_outline_ins)">
<use xlink:href="#path4_stroke_2x" transform="translate(2044 572)" fill="#333333" style="mix-blend-mode:normal;"/>
</g>
</g>
<g id="00" style="mix-blend-mode:normal;" figma:type="text">
<use xlink:href="#path5_fill" transform="translate(2044 572)" fill="#333333" style="mix-blend-mode:normal;"/>
</g>
</g>
<g id="Component" style="mix-blend-mode:normal;" figma:type="instance">
<g id="Rectangle 4" style="mix-blend-mode:normal;" figma:type="rounded-rectangle">
<mask id="mask9_outline_ins">
<use xlink:href="#path3_fill" fill="white" transform="translate(2081 572)"/>
</mask>
<g mask="url(#mask9_outline_ins)">
<use xlink:href="#path4_stroke_2x" transform="translate(2081 572)" fill="#333333" style="mix-blend-mode:normal;"/>
</g>
</g>
<g id="00" style="mix-blend-mode:normal;" figma:type="text">
<use xlink:href="#path5_fill" transform="translate(2081 572)" fill="#333333" style="mix-blend-mode:normal;"/>
</g>
</g>
<g id="Component" style="mix-blend-mode:normal;" figma:type="instance">
<g id="Rectangle 4" style="mix-blend-mode:normal;" figma:type="rounded-rectangle">
<mask id="mask10_outline_ins">
<use xlink:href="#path3_fill" fill="white" transform="translate(2118 572)"/>
</mask>
<g mask="url(#mask10_outline_ins)">
<use xlink:href="#path4_stroke_2x" transform="translate(2118 572)" fill="#333333" style="mix-blend-mode:normal;"/>
</g>
</g>
<g id="00" style="mix-blend-mode:normal;" figma:type="text">
<use xlink:href="#path5_fill" transform="translate(2118 572)" fill="#333333" style="mix-blend-mode:normal;"/>
</g>
</g>
<g id="Component" style="mix-blend-mode:normal;" figma:type="instance">
<g id="Rectangle 4" style="mix-blend-mode:normal;" figma:type="rounded-rectangle">
<mask id="mask11_outline_ins">
<use xlink:href="#path3_fill" fill="white" transform="translate(2155 572)"/>
</mask>
<g mask="url(#mask11_outline_ins)">
<use xlink:href="#path4_stroke_2x" transform="translate(2155 572)" fill="#333333" style="mix-blend-mode:normal;"/>
</g>
</g>
<g id="00" style="mix-blend-mode:normal;" figma:type="text">
<use xlink:href="#path5_fill" transform="translate(2155 572)" fill="#333333" style="mix-blend-mode:normal;"/>
</g>
</g>
<g id="Component" style="mix-blend-mode:normal;" figma:type="instance">
<g id="Rectangle 4" style="mix-blend-mode:normal;" figma:type="rounded-rectangle">
<mask id="mask12_outline_ins">
<use xlink:href="#path3_fill" fill="white" transform="translate(2192 572)"/>
</mask>
<g mask="url(#mask12_outline_ins)">
<use xlink:href="#path4_stroke_2x" transform="translate(2192 572)" fill="#333333" style="mix-blend-mode:normal;"/>
</g>
</g>
<g id="00" style="mix-blend-mode:normal;" figma:type="text">
<use xlink:href="#path5_fill" transform="translate(2192 572)" fill="#333333" style="mix-blend-mode:normal;"/>
</g>
</g>
<g id="Component" style="mix-blend-mode:normal;" figma:type="instance">
<g id="Rectangle 4" style="mix-blend-mode:normal;" figma:type="rounded-rectangle">
<mask id="mask13_outline_ins">
<use xlink:href="#path3_fill" fill="white" transform="translate(2229 572)"/>
</mask>
<g mask="url(#mask13_outline_ins)">
<use xlink:href="#path4_stroke_2x" transform="translate(2229 572)" fill="#333333" style="mix-blend-mode:normal;"/>
</g>
</g>
<g id="00" style="mix-blend-mode:normal;" figma:type="text">
<use xlink:href="#path5_fill" transform="translate(2229 572)" fill="#333333" style="mix-blend-mode:normal;"/>
</g>
</g>
<g id="Component" style="mix-blend-mode:normal;" figma:type="instance">
<g id="Rectangle 4" style="mix-blend-mode:normal;" figma:type="rounded-rectangle">
<mask id="mask14_outline_ins">
<use xlink:href="#path3_fill" fill="white" transform="translate(2266 572)"/>
</mask>
<g mask="url(#mask14_outline_ins)">
<use xlink:href="#path4_stroke_2x" transform="translate(2266 572)" fill="#333333" style="mix-blend-mode:normal;"/>
</g>
</g>
<g id="00" style="mix-blend-mode:normal;" figma:type="text">
<use xlink:href="#path5_fill" transform="translate(2266 572)" fill="#333333" style="mix-blend-mode:normal;"/>
</g>
</g>
<g id="Component" style="mix-blend-mode:normal;" figma:type="instance">
<g id="Rectangle 4" style="mix-blend-mode:normal;" figma:type="rounded-rectangle">
<mask id="mask15_outline_ins">
<use xlink:href="#path3_fill" fill="white" transform="translate(2303 572)"/>
</mask>
<g mask="url(#mask15_outline_ins)">
<use xlink:href="#path4_stroke_2x" transform="translate(2303 572)" fill="#333333" style="mix-blend-mode:normal;"/>
</g>
</g>
<g id="00" style="mix-blend-mode:normal;" figma:type="text">
<use xlink:href="#path5_fill" transform="translate(2303 572)" fill="#333333" style="mix-blend-mode:normal;"/>
</g>
</g>
<g id="Component" style="mix-blend-mode:normal;" figma:type="instance">
<g id="Rectangle 4" style="mix-blend-mode:normal;" figma:type="rounded-rectangle">
<mask id="mask16_outline_ins">
<use xlink:href="#path3_fill" fill="white" transform="translate(2340 572)"/>
</mask>
<g mask="url(#mask16_outline_ins)">
<use xlink:href="#path4_stroke_2x" transform="translate(2340 572)" fill="#333333" style="mix-blend-mode:normal;"/>
</g>
</g>
<g id="00" style="mix-blend-mode:normal;" figma:type="text">
<use xlink:href="#path5_fill" transform="translate(2340 572)" fill="#333333" style="mix-blend-mode:normal;"/>
</g>
</g>
<g id="Component" style="mix-blend-mode:normal;" figma:type="instance">
<g id="Rectangle 4" style="mix-blend-mode:normal;" figma:type="rounded-rectangle">
<mask id="mask17_outline_ins">
<use xlink:href="#path3_fill" fill="white" transform="translate(2377 572)"/>
</mask>
<g mask="url(#mask17_outline_ins)">
<use xlink:href="#path4_stroke_2x" transform="translate(2377 572)" fill="#333333" style="mix-blend-mode:normal;"/>
</g>
</g>
<g id="00" style="mix-blend-mode:normal;" figma:type="text">
<use xlink:href="#path5_fill" transform="translate(2377 572)" fill="#333333" style="mix-blend-mode:normal;"/>
</g>
</g>
<g id="Component" style="mix-blend-mode:normal;" figma:type="instance">
<g id="Rectangle 4" style="mix-blend-mode:normal;" figma:type="rounded-rectangle">
<mask id="mask18_outline_ins">
<use xlink:href="#path3_fill" fill="white" transform="translate(2414 572)"/>
</mask>
<g mask="url(#mask18_outline_ins)">
<use xlink:href="#path4_stroke_2x" transform="translate(2414 572)" fill="#333333" style="mix-blend-mode:normal;"/>
</g>
</g>
</g>
<g id="0" style="mix-blend-mode:normal;" figma:type="symbol">
<g id="0" style="mix-blend-mode:normal;" figma:type="text">
<use xlink:href="#path6_fill" transform="translate(1785 604)" fill="#333333" style="mix-blend-mode:normal;"/>
</g>
</g>
<g id="0" style="mix-blend-mode:normal;" figma:type="instance">
<g id="1" style="mix-blend-mode:normal;" figma:type="text">
<use xlink:href="#path7_fill" transform="translate(1822 604)" fill="#333333" style="mix-blend-mode:normal;"/>
</g>
</g>
<g id="0" style="mix-blend-mode:normal;" figma:type="instance">
<g id="2" style="mix-blend-mode:normal;" figma:type="text">
<use xlink:href="#path8_fill" transform="translate(1859 604)" fill="#333333" style="mix-blend-mode:normal;"/>
</g>
</g>
<g id="0" style="mix-blend-mode:normal;" figma:type="instance">
<g id="3" style="mix-blend-mode:normal;" figma:type="text">
<use xlink:href="#path9_fill" transform="translate(1896 604)" fill="#333333" style="mix-blend-mode:normal;"/>
</g>
</g>
<g id="0" style="mix-blend-mode:normal;" figma:type="instance">
<g id="4" style="mix-blend-mode:normal;" figma:type="text">
<use xlink:href="#path10_fill" transform="translate(1933 604)" fill="#333333" style="mix-blend-mode:normal;"/>
</g>
</g>
<g id="0" style="mix-blend-mode:normal;" figma:type="instance">
<g id="5" style="mix-blend-mode:normal;" figma:type="text">
<use xlink:href="#path11_fill" transform="translate(1970 604)" fill="#333333" style="mix-blend-mode:normal;"/>
</g>
</g>
<g id="0" style="mix-blend-mode:normal;" figma:type="instance">
<g id="6" style="mix-blend-mode:normal;" figma:type="text">
<use xlink:href="#path12_fill" transform="translate(2007 604)" fill="#333333" style="mix-blend-mode:normal;"/>
</g>
</g>
<g id="0" style="mix-blend-mode:normal;" figma:type="instance">
<g id="7" style="mix-blend-mode:normal;" figma:type="text">
<use xlink:href="#path13_fill" transform="translate(2044 604)" fill="#333333" style="mix-blend-mode:normal;"/>
</g>
</g>
<g id="0" style="mix-blend-mode:normal;" figma:type="instance">
<g id="8" style="mix-blend-mode:normal;" figma:type="text">
<use xlink:href="#path14_fill" transform="translate(2081 604)" fill="#333333" style="mix-blend-mode:normal;"/>
</g>
</g>
<g id="0" style="mix-blend-mode:normal;" figma:type="instance">
<g id="9" style="mix-blend-mode:normal;" figma:type="text">
<use xlink:href="#path15_fill" transform="translate(2118 604)" fill="#333333" style="mix-blend-mode:normal;"/>
</g>
</g>
<g id="0" style="mix-blend-mode:normal;" figma:type="instance">
<g id="10" style="mix-blend-mode:normal;" figma:type="text">
<use xlink:href="#path16_fill" transform="translate(2155 604)" fill="#333333" style="mix-blend-mode:normal;"/>
</g>
</g>
<g id="0" style="mix-blend-mode:normal;" figma:type="instance">
<g id="11" style="mix-blend-mode:normal;" figma:type="text">
<use xlink:href="#path17_fill" transform="translate(2192 604)" fill="#333333" style="mix-blend-mode:normal;"/>
</g>
</g>
<g id="0" style="mix-blend-mode:normal;" figma:type="instance">
<g id="12" style="mix-blend-mode:normal;" figma:type="text">
<use xlink:href="#path18_fill" transform="translate(2229 604)" fill="#333333" style="mix-blend-mode:normal;"/>
</g>
</g>
<g id="0" style="mix-blend-mode:normal;" figma:type="instance">
<g id="13" style="mix-blend-mode:normal;" figma:type="text">
<use xlink:href="#path19_fill" transform="translate(2266 604)" fill="#333333" style="mix-blend-mode:normal;"/>
</g>
</g>
<g id="0" style="mix-blend-mode:normal;" figma:type="instance">
<g id="14" style="mix-blend-mode:normal;" figma:type="text">
<use xlink:href="#path20_fill" transform="translate(2303 604)" fill="#333333" style="mix-blend-mode:normal;"/>
</g>
</g>
<g id="0" style="mix-blend-mode:normal;" figma:type="instance">
<g id="15" style="mix-blend-mode:normal;" figma:type="text">
<use xlink:href="#path21_fill" transform="translate(2340 604)" fill="#333333" style="mix-blend-mode:normal;"/>
</g>
</g>
<g id="0" style="mix-blend-mode:normal;" figma:type="instance">
<g id="16" style="mix-blend-mode:normal;" figma:type="text">
<use xlink:href="#path22_fill" transform="translate(2377 604)" fill="#333333" style="mix-blend-mode:normal;"/>
</g>
</g>
<g id="0" style="mix-blend-mode:normal;" figma:type="instance">
</g>
<g id="Component" style="mix-blend-mode:normal;" figma:type="symbol">
<g id="0" style="mix-blend-mode:normal;" figma:type="instance">
<g id="0" style="mix-blend-mode:normal;" figma:type="text">
<use xlink:href="#path23_fill" transform="translate(1785 644)" fill="#BB6BD9" style="mix-blend-mode:normal;"/>
</g>
</g>
<g id="Line 3" style="mix-blend-mode:normal;" figma:type="line">
<use xlink:href="#path24_stroke" transform="translate(1785 644)" fill="#BB6BD9" style="mix-blend-mode:normal;"/>
</g>
</g>
<g id="Component" style="mix-blend-mode:normal;" figma:type="symbol">
<g id="Line 3" style="mix-blend-mode:normal;" figma:type="line">
<use xlink:href="#path25_stroke" transform="translate(1785 684)" fill="#27AE60" style="mix-blend-mode:normal;"/>
</g>
<g id="0" style="mix-blend-mode:normal;" figma:type="instance">
<g id="0" style="mix-blend-mode:normal;" figma:type="text">
<use xlink:href="#path26_fill" transform="translate(1785 684)" fill="#27AE60" style="mix-blend-mode:normal;"/>
</g>
</g>
</g>
<g id="Component" style="mix-blend-mode:normal;" figma:type="instance">
<g id="Line 3" style="mix-blend-mode:normal;" figma:type="line">
<use xlink:href="#path25_stroke" transform="translate(1933 684)" fill="#27AE60" style="mix-blend-mode:normal;"/>
</g>
<g id="0" style="mix-blend-mode:normal;" figma:type="instance">
<g id="2" style="mix-blend-mode:normal;" figma:type="text">
<use xlink:href="#path27_fill" transform="translate(1933 684)" fill="#27AE60" style="mix-blend-mode:normal;"/>
</g>
</g>
</g>
<g id="Component" style="mix-blend-mode:normal;" figma:type="instance">
<g id="Line 3" style="mix-blend-mode:normal;" figma:type="line">
<use xlink:href="#path25_stroke" transform="translate(2081 684)" fill="#27AE60" style="mix-blend-mode:normal;"/>
</g>
<g id="0" style="mix-blend-mode:normal;" figma:type="instance">
<g id="3" style="mix-blend-mode:normal;" figma:type="text">
<use xlink:href="#path28_fill" transform="translate(2081 684)" fill="#27AE60" style="mix-blend-mode:normal;"/>
</g>
</g>
</g>
<g id="Component" style="mix-blend-mode:normal;" figma:type="instance">
<g id="Line 3" style="mix-blend-mode:normal;" figma:type="line">
<use xlink:href="#path25_stroke" transform="translate(2229 684)" fill="#27AE60" style="mix-blend-mode:normal;"/>
</g>
<g id="0" style="mix-blend-mode:normal;" figma:type="instance">
<g id="4" style="mix-blend-mode:normal;" figma:type="text">
<use xlink:href="#path29_fill" transform="translate(2229 684)" fill="#27AE60" style="mix-blend-mode:normal;"/>
</g>
</g>
</g>
<g id="Component" style="mix-blend-mode:normal;" figma:type="instance">
<g id="Line 3" style="mix-blend-mode:normal;" figma:type="line">
<use xlink:href="#path25_stroke" transform="translate(2377 684)" fill="#27AE60" style="mix-blend-mode:normal;"/>
</g>
<g id="0" style="mix-blend-mode:normal;" figma:type="instance">
</g>
</g>
<g id="Component" style="mix-blend-mode:normal;" figma:type="instance">
<g id="0" style="mix-blend-mode:normal;" figma:type="instance">
<g id="1" style="mix-blend-mode:normal;" figma:type="text">
<use xlink:href="#path30_fill" transform="translate(1859 644)" fill="#BB6BD9" style="mix-blend-mode:normal;"/>
</g>
</g>
<g id="Line 3" style="mix-blend-mode:normal;" figma:type="line">
<use xlink:href="#path24_stroke" transform="translate(1859 644)" fill="#BB6BD9" style="mix-blend-mode:normal;"/>
</g>
</g>
<g id="Component" style="mix-blend-mode:normal;" figma:type="instance">
<g id="0" style="mix-blend-mode:normal;" figma:type="instance">
<g id="2" style="mix-blend-mode:normal;" figma:type="text">
<use xlink:href="#path31_fill" transform="translate(1933 644)" fill="#BB6BD9" style="mix-blend-mode:normal;"/>
</g>
</g>
<g id="Line 3" style="mix-blend-mode:normal;" figma:type="line">
<use xlink:href="#path24_stroke" transform="translate(1933 644)" fill="#BB6BD9" style="mix-blend-mode:normal;"/>
</g>
</g>
<g id="Component" style="mix-blend-mode:normal;" figma:type="instance">
<g id="0" style="mix-blend-mode:normal;" figma:type="instance">
<g id="3" style="mix-blend-mode:normal;" figma:type="text">
<use xlink:href="#path32_fill" transform="translate(2007 644)" fill="#BB6BD9" style="mix-blend-mode:normal;"/>
</g>
</g>
<g id="Line 3" style="mix-blend-mode:normal;" figma:type="line">
<use xlink:href="#path24_stroke" transform="translate(2007 644)" fill="#BB6BD9" style="mix-blend-mode:normal;"/>
</g>
</g>
<g id="Component" style="mix-blend-mode:normal;" figma:type="instance">
<g id="0" style="mix-blend-mode:normal;" figma:type="instance">
<g id="4" style="mix-blend-mode:normal;" figma:type="text">
<use xlink:href="#path33_fill" transform="translate(2081 644)" fill="#BB6BD9" style="mix-blend-mode:normal;"/>
</g>
</g>
<g id="Line 3" style="mix-blend-mode:normal;" figma:type="line">
<use xlink:href="#path24_stroke" transform="translate(2081 644)" fill="#BB6BD9" style="mix-blend-mode:normal;"/>
</g>
</g>
<g id="Component" style="mix-blend-mode:normal;" figma:type="instance">
<g id="0" style="mix-blend-mode:normal;" figma:type="instance">
<g id="5" style="mix-blend-mode:normal;" figma:type="text">
<use xlink:href="#path34_fill" transform="translate(2155 644)" fill="#BB6BD9" style="mix-blend-mode:normal;"/>
</g>
</g>
<g id="Line 3" style="mix-blend-mode:normal;" figma:type="line">
<use xlink:href="#path24_stroke" transform="translate(2155 644)" fill="#BB6BD9" style="mix-blend-mode:normal;"/>
</g>
</g>
<g id="Component" style="mix-blend-mode:normal;" figma:type="instance">
<g id="0" style="mix-blend-mode:normal;" figma:type="instance">
<g id="6" style="mix-blend-mode:normal;" figma:type="text">
<use xlink:href="#path35_fill" transform="translate(2229 644)" fill="#BB6BD9" style="mix-blend-mode:normal;"/>
</g>
</g>
<g id="Line 3" style="mix-blend-mode:normal;" figma:type="line">
<use xlink:href="#path24_stroke" transform="translate(2229 644)" fill="#BB6BD9" style="mix-blend-mode:normal;"/>
</g>
</g>
<g id="Component" style="mix-blend-mode:normal;" figma:type="instance">
<g id="0" style="mix-blend-mode:normal;" figma:type="instance">
<g id="7" style="mix-blend-mode:normal;" figma:type="text">
<use xlink:href="#path36_fill" transform="translate(2303 644)" fill="#BB6BD9" style="mix-blend-mode:normal;"/>
</g>
</g>
<g id="Line 3" style="mix-blend-mode:normal;" figma:type="line">
<use xlink:href="#path24_stroke" transform="translate(2303 644)" fill="#BB6BD9" style="mix-blend-mode:normal;"/>
</g>
</g>
<g id="Component" style="mix-blend-mode:normal;" figma:type="instance">
<g id="0" style="mix-blend-mode:normal;" figma:type="instance">
<g id="8" style="mix-blend-mode:normal;" figma:type="text">
<use xlink:href="#path37_fill" transform="translate(2377 644)" fill="#BB6BD9" style="mix-blend-mode:normal;"/>
</g>
</g>
<g id="Line 3" style="mix-blend-mode:normal;" figma:type="line">
<use xlink:href="#path24_stroke" transform="translate(2377 644)" fill="#BB6BD9" style="mix-blend-mode:normal;"/>
</g>
</g>
<g id="Component" style="mix-blend-mode:normal;" figma:type="symbol">
<g id="Line 3" style="mix-blend-mode:normal;" figma:type="line">
<use xlink:href="#path38_stroke" transform="translate(1785 724)" fill="#E2B018" style="mix-blend-mode:normal;"/>
</g>
<g id="0" style="mix-blend-mode:normal;" figma:type="instance">
<g id="0" style="mix-blend-mode:normal;" figma:type="text">
<use xlink:href="#path39_fill" transform="translate(1785 724)" fill="#C7A233" style="mix-blend-mode:normal;"/>
</g>
</g>
</g>
<g id="Component" style="mix-blend-mode:normal;" figma:type="instance">
<g id="Line 3" style="mix-blend-mode:normal;" figma:type="line">
<use xlink:href="#path38_stroke" transform="translate(2081 724)" fill="#E2B018" style="mix-blend-mode:normal;"/>
</g>
<g id="0" style="mix-blend-mode:normal;" figma:type="instance">
<g id="1" style="mix-blend-mode:normal;" figma:type="text">
<use xlink:href="#path40_fill" transform="translate(2081 724)" fill="#C7A233" style="mix-blend-mode:normal;"/>
</g>
</g>
</g>
<g id="Component" style="mix-blend-mode:normal;" figma:type="instance">
<g id="Line 3" style="mix-blend-mode:normal;" figma:type="line">
<use xlink:href="#path38_stroke" transform="translate(2377 724)" fill="#E2B018" style="mix-blend-mode:normal;"/>
</g>
<g id="0" style="mix-blend-mode:normal;" figma:type="instance">
</g>
</g>
<g id="Line 4" style="mix-blend-mode:normal;" figma:type="vector">
<use xlink:href="#path41_stroke" transform="matrix(0.0039551 -0.999992 1 9.47983e-31 1856 676)" fill="#BB6BD9" style="mix-blend-mode:normal;"/>
</g>
<g id="Line 4" style="mix-blend-mode:normal;" figma:type="vector">
<use xlink:href="#path42_stroke" transform="translate(1819.5 562)" fill="#E7E7E7" style="mix-blend-mode:normal;"/>
</g>
<g id="Line 4" style="mix-blend-mode:normal;" figma:type="vector">
<use xlink:href="#path43_stroke" transform="translate(1930.5 538)" fill="#27AE60" style="mix-blend-mode:normal;"/>
</g>
<g id="Line 4" style="mix-blend-mode:normal;" figma:type="vector">
<use xlink:href="#path44_stroke" transform="translate(2004.5 562)" fill="#BB6BD9" style="mix-blend-mode:normal;"/>
</g>
<g id="Line 4" style="mix-blend-mode:normal;" figma:type="vector">
<use xlink:href="#path45_stroke" transform="translate(2078.5 528)" fill="#E2B018" style="mix-blend-mode:normal;"/>
</g>
<g id="Line 4" style="mix-blend-mode:normal;" figma:type="vector">
<use xlink:href="#path44_stroke" transform="translate(2152.5 562)" fill="#BB6BD9" style="mix-blend-mode:normal;"/>
</g>
<g id="Line 4" style="mix-blend-mode:normal;" figma:type="vector">
<use xlink:href="#path46_stroke" transform="translate(2226.5 562)" fill="#27AE60" style="mix-blend-mode:normal;"/>
</g>
<g id="Line 4" style="mix-blend-mode:normal;" figma:type="vector">
<use xlink:href="#path44_stroke" transform="translate(2300.5 562)" fill="#BB6BD9" style="mix-blend-mode:normal;"/>
</g>
<g id="Line 4" style="mix-blend-mode:normal;" figma:type="vector">
<use xlink:href="#path47_stroke" transform="translate(2374.5 562)" fill="#E2B018" style="mix-blend-mode:normal;"/>
</g>
<g id="64-bit" style="mix-blend-mode:normal;" figma:type="text">
<use xlink:href="#path48_fill" transform="translate(2061 513)" fill="#C7A233" style="mix-blend-mode:normal;"/>
</g>
<g id="32-bit" style="mix-blend-mode:normal;" figma:type="text">
<use xlink:href="#path49_fill" transform="translate(1913 523)" fill="#27AE60" style="mix-blend-mode:normal;"/>
</g>
<g id="16-bit" style="mix-blend-mode:normal;" figma:type="text">
<use xlink:href="#path50_fill" transform="translate(1840 534)" fill="#BB6BD9" style="mix-blend-mode:normal;"/>
</g>
<g id="8-bit" style="mix-blend-mode:normal;" figma:type="text">
<use xlink:href="#path51_fill" transform="translate(1804.5 547)" fill="#999999" style="mix-blend-mode:normal;"/>
</g>
<g id="Line 4" style="mix-blend-mode:normal;" figma:type="line">
<use xlink:href="#path52_stroke" transform="matrix(2.22094e-16 -1 1 1.68821e-17 2439 609)" fill="#FFFFFF" style="mix-blend-mode:normal;"/>
</g>
<g id="Line 4" style="mix-blend-mode:normal;" figma:type="line">
<use xlink:href="#path52_stroke" transform="matrix(2.22094e-16 -1 1 1.68821e-17 2435 609)" fill="#FFFFFF" style="mix-blend-mode:normal;"/>
</g>
<g id="Line 4" style="mix-blend-mode:normal;" figma:type="line">
<use xlink:href="#path52_stroke" transform="matrix(2.22094e-16 -1 1 1.68821e-17 2431 609)" fill="#FFFFFF" style="mix-blend-mode:normal;"/>
</g>
<g id="Line 4" style="mix-blend-mode:normal;" figma:type="line">
<use xlink:href="#path53_stroke" transform="matrix(9.79122e-17 -1 1 3.82935e-17 2437 728)" fill="#FFFFFF" style="mix-blend-mode:normal;"/>
</g>
<g id="Line 4" style="mix-blend-mode:normal;" figma:type="line">
<use xlink:href="#path53_stroke" transform="matrix(9.79122e-17 -1 1 3.82935e-17 2431 728)" fill="#FFFFFF" style="mix-blend-mode:normal;"/>
</g>
<g id="Line 4" style="mix-blend-mode:normal;" figma:type="line">
<use xlink:href="#path53_stroke" transform="matrix(9.79122e-17 -1 1 3.82935e-17 2425 728)" fill="#FFFFFF" style="mix-blend-mode:normal;"/>
</g>
</g>
</g>
<defs>
<path id="path0_fill" d="M 0 2C 0 0.895431 0.895431 0 2 0L 30 0C 31.1046 0 32 0.895431 32 2L 32 30C 32 31.1046 31.1046 32 30 32L 2 32C 0.895431 32 0 31.1046 0 30L 0 2Z"/>
<path id="path1_stroke_2x" d="M 2 2L 30 2L 30 -2L 2 -2L 2 2ZM 30 2L 30 30L 34 30L 34 2L 30 2ZM 30 30L 2 30L 2 34L 30 34L 30 30ZM 2 30L 2 2L -2 2L -2 30L 2 30ZM 2 -2C -0.209139 -2 -2 -0.209139 -2 2L 2 2L 2 -2ZM 30 2L 34 2C 34 -0.209139 32.2091 -2 30 -2L 30 2ZM 30 30L 30 34C 32.2091 34 34 32.2091 34 30L 30 30ZM 2 30L -2 30C -2 32.2091 -0.209139 34 2 34L 2 30Z"/>
<path id="path2_fill" d="M 14.176 12.296C 14.4853 12.712 14.7307 13.256 14.912 13.928C 15.104 14.6 15.2 15.352 15.2 16.184C 15.2 17.0267 15.104 17.7627 14.912 18.392C 14.7307 19.0107 14.4853 19.528 14.176 19.944C 13.8773 20.36 13.536 20.6693 13.152 20.872C 12.768 21.0747 12.3787 21.176 11.984 21.176C 11.5787 21.176 11.184 21.0533 10.8 20.808C 10.416 20.5627 10.0747 20.2213 9.776 19.784C 9.47733 19.336 9.23733 18.8027 9.056 18.184C 8.88533 17.5547 8.8 16.8613 8.8 16.104C 8.8 15.3467 8.88533 14.6533 9.056 14.024C 9.23733 13.3947 9.47733 12.856 9.776 12.408C 10.0747 11.9493 10.416 11.5973 10.8 11.352C 11.184 11.096 11.5787 10.968 11.984 10.968C 12.816 10.968 13.5467 11.4107 14.176 12.296ZM 13.584 13.24C 13.3707 12.8133 13.1253 12.4933 12.848 12.28C 12.5707 12.056 12.288 11.944 12 11.944C 11.7333 11.944 11.4667 12.04 11.2 12.232C 10.944 12.424 10.7147 12.6907 10.512 13.032C 10.3093 13.3733 10.144 13.7893 10.016 14.28C 9.89867 14.7707 9.84 15.3093 9.84 15.896C 9.84 16.5573 9.91467 17.1867 10.064 17.784L 13.584 13.24ZM 13.952 14.312L 10.432 18.792C 10.688 19.272 10.9547 19.6187 11.232 19.832C 11.52 20.0453 11.8027 20.152 12.08 20.152C 12.368 20.152 12.6347 20.0667 12.88 19.896C 13.136 19.7147 13.3547 19.4587 13.536 19.128C 13.728 18.7973 13.8773 18.3973 13.984 17.928C 14.1013 17.448 14.16 16.9093 14.16 16.312C 14.16 15.9387 14.144 15.5867 14.112 15.256C 14.08 14.9253 14.0267 14.6107 13.952 14.312ZM 22.176 12.296C 22.4853 12.712 22.7307 13.256 22.912 13.928C 23.104 14.6 23.2 15.352 23.2 16.184C 23.2 17.0267 23.104 17.7627 22.912 18.392C 22.7307 19.0107 22.4853 19.528 22.176 19.944C 21.8773 20.36 21.536 20.6693 21.152 20.872C 20.768 21.0747 20.3787 21.176 19.984 21.176C 19.5787 21.176 19.184 21.0533 18.8 20.808C 18.416 20.5627 18.0747 20.2213 17.776 19.784C 17.4773 19.336 17.2373 18.8027 17.056 18.184C 16.8853 17.5547 16.8 16.8613 16.8 16.104C 16.8 15.3467 16.8853 14.6533 17.056 14.024C 17.2373 13.3947 17.4773 12.856 17.776 12.408C 18.0747 11.9493 18.416 11.5973 18.8 11.352C 19.184 11.096 19.5787 10.968 19.984 10.968C 20.816 10.968 21.5467 11.4107 22.176 12.296ZM 21.584 13.24C 21.3707 12.8133 21.1253 12.4933 20.848 12.28C 20.5707 12.056 20.288 11.944 20 11.944C 19.7333 11.944 19.4667 12.04 19.2 12.232C 18.944 12.424 18.7147 12.6907 18.512 13.032C 18.3093 13.3733 18.144 13.7893 18.016 14.28C 17.8987 14.7707 17.84 15.3093 17.84 15.896C 17.84 16.5573 17.9147 17.1867 18.064 17.784L 21.584 13.24ZM 21.952 14.312L 18.432 18.792C 18.688 19.272 18.9547 19.6187 19.232 19.832C 19.52 20.0453 19.8027 20.152 20.08 20.152C 20.368 20.152 20.6347 20.0667 20.88 19.896C 21.136 19.7147 21.3547 19.4587 21.536 19.128C 21.728 18.7973 21.8773 18.3973 21.984 17.928C 22.1013 17.448 22.16 16.9093 22.16 16.312C 22.16 15.9387 22.144 15.5867 22.112 15.256C 22.08 14.9253 22.0267 14.6107 21.952 14.312Z"/>
<path id="path3_fill" d="M 0 2C 0 0.895431 0.895431 0 2 0L 30 0C 31.1046 0 32 0.895431 32 2L 32 30C 32 31.1046 31.1046 32 30 32L 2 32C 0.895431 32 0 31.1046 0 30L 0 2Z"/>
<path id="path4_stroke_2x" d="M 2 2L 30 2L 30 -2L 2 -2L 2 2ZM 30 2L 30 30L 34 30L 34 2L 30 2ZM 30 30L 2 30L 2 34L 30 34L 30 30ZM 2 30L 2 2L -2 2L -2 30L 2 30ZM 2 -2C -0.209139 -2 -2 -0.209139 -2 2L 2 2L 2 2L 2 -2ZM 30 2L 30 2L 34 2C 34 -0.209139 32.2091 -2 30 -2L 30 2ZM 30 30L 30 34C 32.2091 34 34 32.2091 34 30L 30 30ZM 2 30L 2 30L -2 30C -2 32.2091 -0.209139 34 2 34L 2 30Z"/>
<path id="path5_fill" d="M 14.176 12.296C 14.4853 12.712 14.7307 13.256 14.912 13.928C 15.104 14.6 15.2 15.352 15.2 16.184C 15.2 17.0267 15.104 17.7627 14.912 18.392C 14.7307 19.0107 14.4853 19.528 14.176 19.944C 13.8773 20.36 13.536 20.6693 13.152 20.872C 12.768 21.0747 12.3787 21.176 11.984 21.176C 11.5787 21.176 11.184 21.0533 10.8 20.808C 10.416 20.5627 10.0747 20.2213 9.776 19.784C 9.47733 19.336 9.23733 18.8027 9.056 18.184C 8.88533 17.5547 8.8 16.8613 8.8 16.104C 8.8 15.3467 8.88533 14.6533 9.056 14.024C 9.23733 13.3947 9.47733 12.856 9.776 12.408C 10.0747 11.9493 10.416 11.5973 10.8 11.352C 11.184 11.096 11.5787 10.968 11.984 10.968C 12.816 10.968 13.5467 11.4107 14.176 12.296ZM 13.584 13.24C 13.3707 12.8133 13.1253 12.4933 12.848 12.28C 12.5707 12.056 12.288 11.944 12 11.944C 11.7333 11.944 11.4667 12.04 11.2 12.232C 10.944 12.424 10.7147 12.6907 10.512 13.032C 10.3093 13.3733 10.144 13.7893 10.016 14.28C 9.89867 14.7707 9.84 15.3093 9.84 15.896C 9.84 16.5573 9.91467 17.1867 10.064 17.784L 13.584 13.24ZM 13.952 14.312L 10.432 18.792C 10.688 19.272 10.9547 19.6187 11.232 19.832C 11.52 20.0453 11.8027 20.152 12.08 20.152C 12.368 20.152 12.6347 20.0667 12.88 19.896C 13.136 19.7147 13.3547 19.4587 13.536 19.128C 13.728 18.7973 13.8773 18.3973 13.984 17.928C 14.1013 17.448 14.16 16.9093 14.16 16.312C 14.16 15.9387 14.144 15.5867 14.112 15.256C 14.08 14.9253 14.0267 14.6107 13.952 14.312ZM 22.176 12.296C 22.4853 12.712 22.7307 13.256 22.912 13.928C 23.104 14.6 23.2 15.352 23.2 16.184C 23.2 17.0267 23.104 17.7627 22.912 18.392C 22.7307 19.0107 22.4853 19.528 22.176 19.944C 21.8773 20.36 21.536 20.6693 21.152 20.872C 20.768 21.0747 20.3787 21.176 19.984 21.176C 19.5787 21.176 19.184 21.0533 18.8 20.808C 18.416 20.5627 18.0747 20.2213 17.776 19.784C 17.4773 19.336 17.2373 18.8027 17.056 18.184C 16.8853 17.5547 16.8 16.8613 16.8 16.104C 16.8 15.3467 16.8853 14.6533 17.056 14.024C 17.2373 13.3947 17.4773 12.856 17.776 12.408C 18.0747 11.9493 18.416 11.5973 18.8 11.352C 19.184 11.096 19.5787 10.968 19.984 10.968C 20.816 10.968 21.5467 11.4107 22.176 12.296ZM 21.584 13.24C 21.3707 12.8133 21.1253 12.4933 20.848 12.28C 20.5707 12.056 20.288 11.944 20 11.944C 19.7333 11.944 19.4667 12.04 19.2 12.232C 18.944 12.424 18.7147 12.6907 18.512 13.032C 18.3093 13.3733 18.144 13.7893 18.016 14.28C 17.8987 14.7707 17.84 15.3093 17.84 15.896C 17.84 16.5573 17.9147 17.1867 18.064 17.784L 21.584 13.24ZM 21.952 14.312L 18.432 18.792C 18.688 19.272 18.9547 19.6187 19.232 19.832C 19.52 20.0453 19.8027 20.152 20.08 20.152C 20.368 20.152 20.6347 20.0667 20.88 19.896C 21.136 19.7147 21.3547 19.4587 21.536 19.128C 21.728 18.7973 21.8773 18.3973 21.984 17.928C 22.1013 17.448 22.16 16.9093 22.16 16.312C 22.16 15.9387 22.144 15.5867 22.112 15.256C 22.08 14.9253 22.0267 14.6107 21.952 14.312Z"/>
<path id="path6_fill" d="M 18.176 12.296C 18.4853 12.712 18.7307 13.256 18.912 13.928C 19.104 14.6 19.2 15.352 19.2 16.184C 19.2 17.0267 19.104 17.7627 18.912 18.392C 18.7307 19.0107 18.4853 19.528 18.176 19.944C 17.8773 20.36 17.536 20.6693 17.152 20.872C 16.768 21.0747 16.3787 21.176 15.984 21.176C 15.5787 21.176 15.184 21.0533 14.8 20.808C 14.416 20.5627 14.0747 20.2213 13.776 19.784C 13.4773 19.336 13.2373 18.8027 13.056 18.184C 12.8853 17.5547 12.8 16.8613 12.8 16.104C 12.8 15.3467 12.8853 14.6533 13.056 14.024C 13.2373 13.3947 13.4773 12.856 13.776 12.408C 14.0747 11.9493 14.416 11.5973 14.8 11.352C 15.184 11.096 15.5787 10.968 15.984 10.968C 16.816 10.968 17.5467 11.4107 18.176 12.296ZM 17.584 13.24C 17.3707 12.8133 17.1253 12.4933 16.848 12.28C 16.5707 12.056 16.288 11.944 16 11.944C 15.7333 11.944 15.4667 12.04 15.2 12.232C 14.944 12.424 14.7147 12.6907 14.512 13.032C 14.3093 13.3733 14.144 13.7893 14.016 14.28C 13.8987 14.7707 13.84 15.3093 13.84 15.896C 13.84 16.5573 13.9147 17.1867 14.064 17.784L 17.584 13.24ZM 17.952 14.312L 14.432 18.792C 14.688 19.272 14.9547 19.6187 15.232 19.832C 15.52 20.0453 15.8027 20.152 16.08 20.152C 16.368 20.152 16.6347 20.0667 16.88 19.896C 17.136 19.7147 17.3547 19.4587 17.536 19.128C 17.728 18.7973 17.8773 18.3973 17.984 17.928C 18.1013 17.448 18.16 16.9093 18.16 16.312C 18.16 15.9387 18.144 15.5867 18.112 15.256C 18.08 14.9253 18.0267 14.6107 17.952 14.312Z"/>
<path id="path7_fill" d="M 16.784 11.016L 16.784 21L 15.68 21L 15.68 12.408L 13.664 13L 13.408 12.376L 16.016 11.016L 16.784 11.016Z"/>
<path id="path8_fill" d="M 13.248 12.584C 13.536 12.072 13.9253 11.6773 14.416 11.4C 14.9173 11.112 15.456 10.968 16.032 10.968C 16.4267 10.968 16.8 11.0427 17.152 11.192C 17.504 11.3307 17.8133 11.528 18.08 11.784C 18.3467 12.04 18.5547 12.3387 18.704 12.68C 18.8533 13.0213 18.928 13.384 18.928 13.768C 18.928 14.0773 18.88 14.3707 18.784 14.648C 18.6987 14.9253 18.5813 15.192 18.432 15.448C 18.2827 15.6933 18.1067 15.9333 17.904 16.168C 17.712 16.392 17.5093 16.6 17.296 16.792L 16.336 17.688C 16.1973 17.816 16.0427 17.9707 15.872 18.152C 15.7013 18.3227 15.5307 18.5093 15.36 18.712C 15.2 18.9147 15.04 19.128 14.88 19.352C 14.72 19.576 14.5813 19.8 14.464 20.024L 18.64 20.024C 18.6933 20.024 18.7467 20.0027 18.8 19.96C 18.864 19.9067 18.9227 19.88 18.976 19.88L 19.024 19.88L 19.024 21L 13.168 21L 13.168 20.296C 13.5627 19.5173 13.9893 18.8453 14.448 18.28C 14.9067 17.7147 15.3493 17.24 15.776 16.856L 16.544 16.152C 16.8107 15.9067 17.024 15.6827 17.184 15.48C 17.3547 15.2667 17.488 15.064 17.584 14.872C 17.68 14.68 17.744 14.4987 17.776 14.328C 17.808 14.1467 17.824 13.9653 17.824 13.784C 17.824 13.5493 17.776 13.3253 17.68 13.112C 17.584 12.888 17.4453 12.6907 17.264 12.52C 17.0933 12.3387 16.896 12.2 16.672 12.104C 16.4587 11.9973 16.2347 11.944 16 11.944C 15.7227 11.944 15.472 11.9867 15.248 12.072C 15.0347 12.1467 14.8427 12.2427 14.672 12.36C 14.512 12.4667 14.384 12.584 14.288 12.712C 14.192 12.8293 14.1387 12.936 14.128 13.032C 14.1067 13.128 14.0853 13.192 14.064 13.224L 13.248 12.584Z"/>
<path id="path9_fill" d="M 18.576 13.528C 18.576 14.008 18.4373 14.4453 18.16 14.84C 17.8933 15.2347 17.536 15.5173 17.088 15.688C 17.6 15.8693 18.0107 16.1947 18.32 16.664C 18.64 17.1333 18.8 17.6667 18.8 18.264C 18.8 18.6587 18.7253 19.032 18.576 19.384C 18.4373 19.736 18.2293 20.0453 17.952 20.312C 17.6853 20.5787 17.3547 20.792 16.96 20.952C 16.5653 21.1013 16.1173 21.176 15.616 21.176C 14.6347 21.176 13.7973 20.7973 13.104 20.04L 13.952 19.032C 13.9947 19.0747 14.0267 19.1493 14.048 19.256C 14.0693 19.352 14.1067 19.432 14.16 19.496L 14.384 19.704C 14.4693 19.7893 14.64 19.8853 14.896 19.992C 15.1627 20.0987 15.4347 20.152 15.712 20.152C 16 20.152 16.2667 20.0987 16.512 19.992C 16.7573 19.8853 16.9707 19.7413 17.152 19.56C 17.3333 19.368 17.472 19.1493 17.568 18.904C 17.6747 18.648 17.728 18.3813 17.728 18.104C 17.728 17.528 17.5093 17.0747 17.072 16.744C 16.6453 16.4027 16.08 16.232 15.376 16.232C 15.2907 16.232 15.2053 16.2373 15.12 16.248C 15.0453 16.248 14.9653 16.2533 14.88 16.264L 14.88 15.368C 15.3707 15.368 15.7813 15.32 16.112 15.224C 16.4427 15.1173 16.7093 14.9787 16.912 14.808C 17.1253 14.6373 17.2747 14.44 17.36 14.216C 17.456 13.9813 17.504 13.7307 17.504 13.464C 17.504 13.272 17.4613 13.0907 17.376 12.92C 17.2907 12.7387 17.1733 12.584 17.024 12.456C 16.8747 12.3173 16.6933 12.2053 16.48 12.12C 16.2667 12.0347 16.032 11.992 15.776 11.992C 15.0933 11.992 14.5227 12.248 14.064 12.76L 13.44 12.072C 14.0907 11.3573 14.8853 11 15.824 11C 16.208 11 16.5653 11.0693 16.896 11.208C 17.2373 11.336 17.5307 11.5173 17.776 11.752C 18.0213 11.9867 18.2133 12.2587 18.352 12.568C 18.5013 12.8667 18.576 13.1867 18.576 13.528Z"/>
<path id="path10_fill" d="M 17.008 11.016L 17.952 11.016L 17.952 17.256L 19.232 17.256L 19.232 18.248L 17.952 18.248L 17.952 21L 16.784 21L 16.784 18.232L 12.768 18.232L 12.768 17.416L 17.008 11.016ZM 16.8 12.792L 13.872 17.256L 16.8 17.256L 16.8 12.792Z"/>
<path id="path11_fill" d="M 13.696 11.032L 18.752 11.032L 18.752 12.04L 14.64 12.04L 14.48 14.904C 15.0027 14.648 15.5467 14.52 16.112 14.52C 16.5387 14.52 16.9333 14.6 17.296 14.76C 17.6693 14.9093 17.9893 15.1333 18.256 15.432C 18.5333 15.72 18.7467 16.072 18.896 16.488C 19.0453 16.8933 19.12 17.352 19.12 17.864C 19.12 18.376 19.04 18.84 18.88 19.256C 18.72 19.6613 18.496 20.008 18.208 20.296C 17.9307 20.584 17.6 20.8027 17.216 20.952C 16.8427 21.1013 16.432 21.176 15.984 21.176C 15.376 21.176 14.8107 21.0427 14.288 20.776C 13.776 20.5093 13.3547 20.1307 13.024 19.64L 14.016 18.904C 14.0693 18.936 14.096 19 14.096 19.096C 14.1067 19.192 14.1173 19.2507 14.128 19.272C 14.1707 19.3467 14.2453 19.4373 14.352 19.544C 14.4587 19.6507 14.592 19.752 14.752 19.848C 14.9227 19.944 15.1147 20.0293 15.328 20.104C 15.552 20.168 15.792 20.2 16.048 20.2C 16.304 20.2 16.5493 20.1467 16.784 20.04C 17.0187 19.9227 17.2213 19.7627 17.392 19.56C 17.5733 19.3573 17.7173 19.112 17.824 18.824C 17.9307 18.5253 17.984 18.1893 17.984 17.816C 17.984 17.4427 17.9307 17.112 17.824 16.824C 17.7173 16.5253 17.568 16.2747 17.376 16.072C 17.1947 15.8693 16.9813 15.7147 16.736 15.608C 16.4907 15.5013 16.224 15.448 15.936 15.448C 15.5947 15.448 15.2587 15.5333 14.928 15.704C 14.5973 15.864 14.3093 16.0933 14.064 16.392L 13.36 16.104L 13.696 11.032Z"/>
<path id="path12_fill" d="M 16.592 10.92C 17.424 10.92 18.1547 11.224 18.784 11.832L 18 12.68C 17.904 12.5947 17.84 12.504 17.808 12.408C 17.776 12.3013 17.7013 12.2267 17.584 12.184C 17.424 12.0773 17.2587 12.008 17.088 11.976C 16.928 11.9333 16.7733 11.912 16.624 11.912C 16.4107 11.912 16.16 11.9653 15.872 12.072C 15.5947 12.168 15.3333 12.3547 15.088 12.632C 14.8427 12.9093 14.6293 13.304 14.448 13.816C 14.2773 14.3173 14.1867 14.968 14.176 15.768C 14.4 15.3947 14.6987 15.1013 15.072 14.888C 15.456 14.6747 15.8613 14.568 16.288 14.568C 16.6613 14.568 17.0133 14.648 17.344 14.808C 17.6747 14.9573 17.9627 15.176 18.208 15.464C 18.464 15.752 18.6613 16.0987 18.8 16.504C 18.9493 16.8987 19.024 17.3413 19.024 17.832C 19.024 18.3227 18.9493 18.776 18.8 19.192C 18.6507 19.5973 18.448 19.9493 18.192 20.248C 17.936 20.536 17.632 20.76 17.28 20.92C 16.9387 21.08 16.5707 21.16 16.176 21.16C 15.6747 21.16 15.232 21.0533 14.848 20.84C 14.464 20.616 14.1387 20.3013 13.872 19.896C 13.616 19.4907 13.4187 19 13.28 18.424C 13.1413 17.8373 13.072 17.1813 13.072 16.456C 13.072 15.56 13.152 14.7707 13.312 14.088C 13.4827 13.3947 13.7227 12.8133 14.032 12.344C 14.3413 11.8747 14.7093 11.5227 15.136 11.288C 15.5733 11.0427 16.0587 10.92 16.592 10.92ZM 14.24 16.888C 14.2293 16.952 14.224 17.016 14.224 17.08C 14.224 17.144 14.224 17.208 14.224 17.272C 14.224 17.688 14.272 18.072 14.368 18.424C 14.4747 18.776 14.6187 19.08 14.8 19.336C 14.9813 19.592 15.1947 19.7947 15.44 19.944C 15.6853 20.0933 15.9467 20.168 16.224 20.168C 16.6827 20.168 17.0827 19.9707 17.424 19.576C 17.7653 19.1813 17.936 18.6053 17.936 17.848C 17.936 17.4427 17.8827 17.096 17.776 16.808C 17.6693 16.52 17.5307 16.2853 17.36 16.104C 17.2 15.912 17.0133 15.7733 16.8 15.688C 16.5973 15.592 16.3947 15.544 16.192 15.544C 15.808 15.544 15.44 15.6773 15.088 15.944C 14.736 16.2 14.4533 16.5147 14.24 16.888Z"/>
<path id="path13_fill" d="M 18.912 11.656C 18.24 13.192 17.6107 14.7333 17.024 16.28C 16.448 17.8267 15.9147 19.4 15.424 21L 14.16 21C 14.672 19.4747 15.2053 17.976 15.76 16.504C 16.3147 15.032 16.9013 13.56 17.52 12.088L 13.264 12.088L 13.264 11.032L 18.912 11.032L 18.912 11.656Z"/>
<path id="path14_fill" d="M 18.72 13.272C 18.72 13.752 18.576 14.2107 18.288 14.648C 18 15.0747 17.616 15.416 17.136 15.672C 17.712 15.9387 18.176 16.3227 18.528 16.824C 18.88 17.3147 19.056 17.848 19.056 18.424C 19.056 18.808 18.976 19.1707 18.816 19.512C 18.656 19.8427 18.4373 20.1307 18.16 20.376C 17.8933 20.6213 17.5733 20.8133 17.2 20.952C 16.8267 21.0907 16.4267 21.16 16 21.16C 15.5733 21.16 15.1733 21.0907 14.8 20.952C 14.4267 20.8133 14.1013 20.6267 13.824 20.392C 13.5573 20.1467 13.344 19.864 13.184 19.544C 13.0347 19.2133 12.96 18.8613 12.96 18.488C 12.96 17.912 13.1413 17.3733 13.504 16.872C 13.8667 16.3707 14.352 15.9813 14.96 15.704C 14.5013 15.4693 14.1333 15.144 13.856 14.728C 13.5787 14.3013 13.44 13.848 13.44 13.368C 13.44 13.0267 13.5093 12.7067 13.648 12.408C 13.7867 12.1093 13.9787 11.848 14.224 11.624C 14.4693 11.4 14.752 11.224 15.072 11.096C 15.392 10.968 15.7387 10.904 16.112 10.904C 16.4853 10.904 16.832 10.968 17.152 11.096C 17.472 11.2133 17.744 11.384 17.968 11.608C 18.2027 11.8213 18.384 12.072 18.512 12.36C 18.6507 12.648 18.72 12.952 18.72 13.272ZM 15.792 16.152C 15.312 16.3547 14.912 16.6587 14.592 17.064C 14.272 17.4587 14.112 17.896 14.112 18.376C 14.112 18.6213 14.16 18.8507 14.256 19.064C 14.3627 19.2773 14.5013 19.464 14.672 19.624C 14.8533 19.784 15.056 19.912 15.28 20.008C 15.5147 20.104 15.7653 20.152 16.032 20.152C 16.2987 20.152 16.544 20.1093 16.768 20.024C 17.0027 19.928 17.2053 19.8053 17.376 19.656C 17.5467 19.496 17.68 19.3147 17.776 19.112C 17.872 18.8987 17.92 18.6693 17.92 18.424C 17.92 17.9333 17.728 17.4853 17.344 17.08C 16.96 16.664 16.4427 16.3547 15.792 16.152ZM 14.784 14.136C 14.912 14.3493 15.0773 14.536 15.28 14.696C 15.4933 14.8453 15.7333 14.9893 16 15.128L 16.272 15.272C 16.6667 15.0587 16.992 14.7707 17.248 14.408C 17.504 14.0453 17.632 13.6773 17.632 13.304C 17.632 13.112 17.5893 12.9307 17.504 12.76C 17.4293 12.5893 17.3173 12.4347 17.168 12.296C 17.0293 12.1573 16.864 12.0507 16.672 11.976C 16.48 11.8907 16.272 11.848 16.048 11.848C 15.824 11.848 15.616 11.8907 15.424 11.976C 15.2427 12.0507 15.0827 12.152 14.944 12.28C 14.8053 12.408 14.6987 12.5573 14.624 12.728C 14.5493 12.8987 14.512 13.0747 14.512 13.256C 14.512 13.576 14.6027 13.8693 14.784 14.136Z"/>
<path id="path15_fill" d="M 15.472 21.16C 14.6187 21.16 13.8827 20.856 13.264 20.248L 14.048 19.4C 14.1013 19.432 14.144 19.496 14.176 19.592C 14.2187 19.688 14.2613 19.752 14.304 19.784C 14.6133 20.0293 14.992 20.152 15.44 20.152C 16.24 20.152 16.8373 19.8533 17.232 19.256C 17.6267 18.648 17.8453 17.6667 17.888 16.312C 17.6533 16.6427 17.3547 16.904 16.992 17.096C 16.6293 17.288 16.24 17.384 15.824 17.384C 15.4507 17.384 15.0987 17.3093 14.768 17.16C 14.4373 17 14.144 16.7813 13.888 16.504C 13.6427 16.2267 13.4453 15.896 13.296 15.512C 13.1573 15.1173 13.088 14.6853 13.088 14.216C 13.088 13.7467 13.1627 13.3147 13.312 12.92C 13.4613 12.5147 13.664 12.168 13.92 11.88C 14.1867 11.5813 14.4907 11.352 14.832 11.192C 15.184 11.0213 15.5573 10.936 15.952 10.936C 16.9227 10.936 17.6693 11.3573 18.192 12.2C 18.7253 13.032 18.992 14.3707 18.992 16.216C 18.992 17.0587 18.896 17.7893 18.704 18.408C 18.5227 19.0267 18.272 19.5387 17.952 19.944C 17.632 20.3387 17.2587 20.6373 16.832 20.84C 16.4053 21.0427 15.952 21.1493 15.472 21.16ZM 17.824 15.192C 17.8347 15.1067 17.84 15.0267 17.84 14.952C 17.84 14.8667 17.84 14.7813 17.84 14.696C 17.84 14.28 17.7867 13.9013 17.68 13.56C 17.584 13.2187 17.4507 12.9307 17.28 12.696C 17.1093 12.4507 16.912 12.264 16.688 12.136C 16.464 11.9973 16.2347 11.928 16 11.928C 15.456 11.928 15.0133 12.1307 14.672 12.536C 14.3413 12.9413 14.176 13.496 14.176 14.2C 14.176 14.5413 14.224 14.8507 14.32 15.128C 14.416 15.3947 14.5387 15.624 14.688 15.816C 14.848 16.008 15.024 16.1573 15.216 16.264C 15.4187 16.36 15.6267 16.408 15.84 16.408C 16.2667 16.408 16.6453 16.3013 16.976 16.088C 17.3173 15.864 17.6 15.5653 17.824 15.192Z"/>
<path id="path16_fill" d="M 12.784 11.016L 12.784 21L 11.68 21L 11.68 12.408L 9.664 13L 9.408 12.376L 12.016 11.016L 12.784 11.016ZM 22.176 12.296C 22.4853 12.712 22.7307 13.256 22.912 13.928C 23.104 14.6 23.2 15.352 23.2 16.184C 23.2 17.0267 23.104 17.7627 22.912 18.392C 22.7307 19.0107 22.4853 19.528 22.176 19.944C 21.8773 20.36 21.536 20.6693 21.152 20.872C 20.768 21.0747 20.3787 21.176 19.984 21.176C 19.5787 21.176 19.184 21.0533 18.8 20.808C 18.416 20.5627 18.0747 20.2213 17.776 19.784C 17.4773 19.336 17.2373 18.8027 17.056 18.184C 16.8853 17.5547 16.8 16.8613 16.8 16.104C 16.8 15.3467 16.8853 14.6533 17.056 14.024C 17.2373 13.3947 17.4773 12.856 17.776 12.408C 18.0747 11.9493 18.416 11.5973 18.8 11.352C 19.184 11.096 19.5787 10.968 19.984 10.968C 20.816 10.968 21.5467 11.4107 22.176 12.296ZM 21.584 13.24C 21.3707 12.8133 21.1253 12.4933 20.848 12.28C 20.5707 12.056 20.288 11.944 20 11.944C 19.7333 11.944 19.4667 12.04 19.2 12.232C 18.944 12.424 18.7147 12.6907 18.512 13.032C 18.3093 13.3733 18.144 13.7893 18.016 14.28C 17.8987 14.7707 17.84 15.3093 17.84 15.896C 17.84 16.5573 17.9147 17.1867 18.064 17.784L 21.584 13.24ZM 21.952 14.312L 18.432 18.792C 18.688 19.272 18.9547 19.6187 19.232 19.832C 19.52 20.0453 19.8027 20.152 20.08 20.152C 20.368 20.152 20.6347 20.0667 20.88 19.896C 21.136 19.7147 21.3547 19.4587 21.536 19.128C 21.728 18.7973 21.8773 18.3973 21.984 17.928C 22.1013 17.448 22.16 16.9093 22.16 16.312C 22.16 15.9387 22.144 15.5867 22.112 15.256C 22.08 14.9253 22.0267 14.6107 21.952 14.312Z"/>
<path id="path17_fill" d="M 12.784 11.016L 12.784 21L 11.68 21L 11.68 12.408L 9.664 13L 9.408 12.376L 12.016 11.016L 12.784 11.016ZM 20.784 11.016L 20.784 21L 19.68 21L 19.68 12.408L 17.664 13L 17.408 12.376L 20.016 11.016L 20.784 11.016Z"/>
<path id="path18_fill" d="M 12.784 11.016L 12.784 21L 11.68 21L 11.68 12.408L 9.664 13L 9.408 12.376L 12.016 11.016L 12.784 11.016ZM 17.248 12.584C 17.536 12.072 17.9253 11.6773 18.416 11.4C 18.9173 11.112 19.456 10.968 20.032 10.968C 20.4267 10.968 20.8 11.0427 21.152 11.192C 21.504 11.3307 21.8133 11.528 22.08 11.784C 22.3467 12.04 22.5547 12.3387 22.704 12.68C 22.8533 13.0213 22.928 13.384 22.928 13.768C 22.928 14.0773 22.88 14.3707 22.784 14.648C 22.6987 14.9253 22.5813 15.192 22.432 15.448C 22.2827 15.6933 22.1067 15.9333 21.904 16.168C 21.712 16.392 21.5093 16.6 21.296 16.792L 20.336 17.688C 20.1973 17.816 20.0427 17.9707 19.872 18.152C 19.7013 18.3227 19.5307 18.5093 19.36 18.712C 19.2 18.9147 19.04 19.128 18.88 19.352C 18.72 19.576 18.5813 19.8 18.464 20.024L 22.64 20.024C 22.6933 20.024 22.7467 20.0027 22.8 19.96C 22.864 19.9067 22.9227 19.88 22.976 19.88L 23.024 19.88L 23.024 21L 17.168 21L 17.168 20.296C 17.5627 19.5173 17.9893 18.8453 18.448 18.28C 18.9067 17.7147 19.3493 17.24 19.776 16.856L 20.544 16.152C 20.8107 15.9067 21.024 15.6827 21.184 15.48C 21.3547 15.2667 21.488 15.064 21.584 14.872C 21.68 14.68 21.744 14.4987 21.776 14.328C 21.808 14.1467 21.824 13.9653 21.824 13.784C 21.824 13.5493 21.776 13.3253 21.68 13.112C 21.584 12.888 21.4453 12.6907 21.264 12.52C 21.0933 12.3387 20.896 12.2 20.672 12.104C 20.4587 11.9973 20.2347 11.944 20 11.944C 19.7227 11.944 19.472 11.9867 19.248 12.072C 19.0347 12.1467 18.8427 12.2427 18.672 12.36C 18.512 12.4667 18.384 12.584 18.288 12.712C 18.192 12.8293 18.1387 12.936 18.128 13.032C 18.1067 13.128 18.0853 13.192 18.064 13.224L 17.248 12.584Z"/>
<path id="path19_fill" d="M 12.784 11.016L 12.784 21L 11.68 21L 11.68 12.408L 9.664 13L 9.408 12.376L 12.016 11.016L 12.784 11.016ZM 22.576 13.528C 22.576 14.008 22.4373 14.4453 22.16 14.84C 21.8933 15.2347 21.536 15.5173 21.088 15.688C 21.6 15.8693 22.0107 16.1947 22.32 16.664C 22.64 17.1333 22.8 17.6667 22.8 18.264C 22.8 18.6587 22.7253 19.032 22.576 19.384C 22.4373 19.736 22.2293 20.0453 21.952 20.312C 21.6853 20.5787 21.3547 20.792 20.96 20.952C 20.5653 21.1013 20.1173 21.176 19.616 21.176C 18.6347 21.176 17.7973 20.7973 17.104 20.04L 17.952 19.032C 17.9947 19.0747 18.0267 19.1493 18.048 19.256C 18.0693 19.352 18.1067 19.432 18.16 19.496L 18.384 19.704C 18.4693 19.7893 18.64 19.8853 18.896 19.992C 19.1627 20.0987 19.4347 20.152 19.712 20.152C 20 20.152 20.2667 20.0987 20.512 19.992C 20.7573 19.8853 20.9707 19.7413 21.152 19.56C 21.3333 19.368 21.472 19.1493 21.568 18.904C 21.6747 18.648 21.728 18.3813 21.728 18.104C 21.728 17.528 21.5093 17.0747 21.072 16.744C 20.6453 16.4027 20.08 16.232 19.376 16.232C 19.2907 16.232 19.2053 16.2373 19.12 16.248C 19.0453 16.248 18.9653 16.2533 18.88 16.264L 18.88 15.368C 19.3707 15.368 19.7813 15.32 20.112 15.224C 20.4427 15.1173 20.7093 14.9787 20.912 14.808C 21.1253 14.6373 21.2747 14.44 21.36 14.216C 21.456 13.9813 21.504 13.7307 21.504 13.464C 21.504 13.272 21.4613 13.0907 21.376 12.92C 21.2907 12.7387 21.1733 12.584 21.024 12.456C 20.8747 12.3173 20.6933 12.2053 20.48 12.12C 20.2667 12.0347 20.032 11.992 19.776 11.992C 19.0933 11.992 18.5227 12.248 18.064 12.76L 17.44 12.072C 18.0907 11.3573 18.8853 11 19.824 11C 20.208 11 20.5653 11.0693 20.896 11.208C 21.2373 11.336 21.5307 11.5173 21.776 11.752C 22.0213 11.9867 22.2133 12.2587 22.352 12.568C 22.5013 12.8667 22.576 13.1867 22.576 13.528Z"/>
<path id="path20_fill" d="M 12.784 11.016L 12.784 21L 11.68 21L 11.68 12.408L 9.664 13L 9.408 12.376L 12.016 11.016L 12.784 11.016ZM 21.008 11.016L 21.952 11.016L 21.952 17.256L 23.232 17.256L 23.232 18.248L 21.952 18.248L 21.952 21L 20.784 21L 20.784 18.232L 16.768 18.232L 16.768 17.416L 21.008 11.016ZM 20.8 12.792L 17.872 17.256L 20.8 17.256L 20.8 12.792Z"/>
<path id="path21_fill" d="M 12.784 11.016L 12.784 21L 11.68 21L 11.68 12.408L 9.664 13L 9.408 12.376L 12.016 11.016L 12.784 11.016ZM 17.696 11.032L 22.752 11.032L 22.752 12.04L 18.64 12.04L 18.48 14.904C 19.0027 14.648 19.5467 14.52 20.112 14.52C 20.5387 14.52 20.9333 14.6 21.296 14.76C 21.6693 14.9093 21.9893 15.1333 22.256 15.432C 22.5333 15.72 22.7467 16.072 22.896 16.488C 23.0453 16.8933 23.12 17.352 23.12 17.864C 23.12 18.376 23.04 18.84 22.88 19.256C 22.72 19.6613 22.496 20.008 22.208 20.296C 21.9307 20.584 21.6 20.8027 21.216 20.952C 20.8427 21.1013 20.432 21.176 19.984 21.176C 19.376 21.176 18.8107 21.0427 18.288 20.776C 17.776 20.5093 17.3547 20.1307 17.024 19.64L 18.016 18.904C 18.0693 18.936 18.096 19 18.096 19.096C 18.1067 19.192 18.1173 19.2507 18.128 19.272C 18.1707 19.3467 18.2453 19.4373 18.352 19.544C 18.4587 19.6507 18.592 19.752 18.752 19.848C 18.9227 19.944 19.1147 20.0293 19.328 20.104C 19.552 20.168 19.792 20.2 20.048 20.2C 20.304 20.2 20.5493 20.1467 20.784 20.04C 21.0187 19.9227 21.2213 19.7627 21.392 19.56C 21.5733 19.3573 21.7173 19.112 21.824 18.824C 21.9307 18.5253 21.984 18.1893 21.984 17.816C 21.984 17.4427 21.9307 17.112 21.824 16.824C 21.7173 16.5253 21.568 16.2747 21.376 16.072C 21.1947 15.8693 20.9813 15.7147 20.736 15.608C 20.4907 15.5013 20.224 15.448 19.936 15.448C 19.5947 15.448 19.2587 15.5333 18.928 15.704C 18.5973 15.864 18.3093 16.0933 18.064 16.392L 17.36 16.104L 17.696 11.032Z"/>
<path id="path22_fill" d="M 12.784 11.016L 12.784 21L 11.68 21L 11.68 12.408L 9.664 13L 9.408 12.376L 12.016 11.016L 12.784 11.016ZM 20.592 10.92C 21.424 10.92 22.1547 11.224 22.784 11.832L 22 12.68C 21.904 12.5947 21.84 12.504 21.808 12.408C 21.776 12.3013 21.7013 12.2267 21.584 12.184C 21.424 12.0773 21.2587 12.008 21.088 11.976C 20.928 11.9333 20.7733 11.912 20.624 11.912C 20.4107 11.912 20.16 11.9653 19.872 12.072C 19.5947 12.168 19.3333 12.3547 19.088 12.632C 18.8427 12.9093 18.6293 13.304 18.448 13.816C 18.2773 14.3173 18.1867 14.968 18.176 15.768C 18.4 15.3947 18.6987 15.1013 19.072 14.888C 19.456 14.6747 19.8613 14.568 20.288 14.568C 20.6613 14.568 21.0133 14.648 21.344 14.808C 21.6747 14.9573 21.9627 15.176 22.208 15.464C 22.464 15.752 22.6613 16.0987 22.8 16.504C 22.9493 16.8987 23.024 17.3413 23.024 17.832C 23.024 18.3227 22.9493 18.776 22.8 19.192C 22.6507 19.5973 22.448 19.9493 22.192 20.248C 21.936 20.536 21.632 20.76 21.28 20.92C 20.9387 21.08 20.5707 21.16 20.176 21.16C 19.6747 21.16 19.232 21.0533 18.848 20.84C 18.464 20.616 18.1387 20.3013 17.872 19.896C 17.616 19.4907 17.4187 19 17.28 18.424C 17.1413 17.8373 17.072 17.1813 17.072 16.456C 17.072 15.56 17.152 14.7707 17.312 14.088C 17.4827 13.3947 17.7227 12.8133 18.032 12.344C 18.3413 11.8747 18.7093 11.5227 19.136 11.288C 19.5733 11.0427 20.0587 10.92 20.592 10.92ZM 18.24 16.888C 18.2293 16.952 18.224 17.016 18.224 17.08C 18.224 17.144 18.224 17.208 18.224 17.272C 18.224 17.688 18.272 18.072 18.368 18.424C 18.4747 18.776 18.6187 19.08 18.8 19.336C 18.9813 19.592 19.1947 19.7947 19.44 19.944C 19.6853 20.0933 19.9467 20.168 20.224 20.168C 20.6827 20.168 21.0827 19.9707 21.424 19.576C 21.7653 19.1813 21.936 18.6053 21.936 17.848C 21.936 17.4427 21.8827 17.096 21.776 16.808C 21.6693 16.52 21.5307 16.2853 21.36 16.104C 21.2 15.912 21.0133 15.7733 20.8 15.688C 20.5973 15.592 20.3947 15.544 20.192 15.544C 19.808 15.544 19.44 15.6773 19.088 15.944C 18.736 16.2 18.4533 16.5147 18.24 16.888Z"/>
<path id="path23_fill" d="M 36.676 12.296C 36.9853 12.712 37.2307 13.256 37.412 13.928C 37.604 14.6 37.7 15.352 37.7 16.184C 37.7 17.0267 37.604 17.7627 37.412 18.392C 37.2307 19.0107 36.9853 19.528 36.676 19.944C 36.3773 20.36 36.036 20.6693 35.652 20.872C 35.268 21.0747 34.8787 21.176 34.484 21.176C 34.0787 21.176 33.684 21.0533 33.3 20.808C 32.916 20.5627 32.5747 20.2213 32.276 19.784C 31.9773 19.336 31.7373 18.8027 31.556 18.184C 31.3853 17.5547 31.3 16.8613 31.3 16.104C 31.3 15.3467 31.3853 14.6533 31.556 14.024C 31.7373 13.3947 31.9773 12.856 32.276 12.408C 32.5747 11.9493 32.916 11.5973 33.3 11.352C 33.684 11.096 34.0787 10.968 34.484 10.968C 35.316 10.968 36.0467 11.4107 36.676 12.296ZM 36.084 13.24C 35.8707 12.8133 35.6253 12.4933 35.348 12.28C 35.0707 12.056 34.788 11.944 34.5 11.944C 34.2333 11.944 33.9667 12.04 33.7 12.232C 33.444 12.424 33.2147 12.6907 33.012 13.032C 32.8093 13.3733 32.644 13.7893 32.516 14.28C 32.3987 14.7707 32.34 15.3093 32.34 15.896C 32.34 16.5573 32.4147 17.1867 32.564 17.784L 36.084 13.24ZM 36.452 14.312L 32.932 18.792C 33.188 19.272 33.4547 19.6187 33.732 19.832C 34.02 20.0453 34.3027 20.152 34.58 20.152C 34.868 20.152 35.1347 20.0667 35.38 19.896C 35.636 19.7147 35.8547 19.4587 36.036 19.128C 36.228 18.7973 36.3773 18.3973 36.484 17.928C 36.6013 17.448 36.66 16.9093 36.66 16.312C 36.66 15.9387 36.644 15.5867 36.612 15.256C 36.58 14.9253 36.5267 14.6107 36.452 14.312Z"/>
<path id="path24_stroke" d="M 0 0L 69 0L 69 -4L 0 -4L 0 0Z"/>
<path id="path25_stroke" d="M 0 0L 143 0L 143 -4L 0 -4L 0 0Z"/>
<path id="path26_fill" d="M 73.676 12.296C 73.9853 12.712 74.2307 13.256 74.412 13.928C 74.604 14.6 74.7 15.352 74.7 16.184C 74.7 17.0267 74.604 17.7627 74.412 18.392C 74.2307 19.0107 73.9853 19.528 73.676 19.944C 73.3773 20.36 73.036 20.6693 72.652 20.872C 72.268 21.0747 71.8787 21.176 71.484 21.176C 71.0787 21.176 70.684 21.0533 70.3 20.808C 69.916 20.5627 69.5747 20.2213 69.276 19.784C 68.9773 19.336 68.7373 18.8027 68.556 18.184C 68.3853 17.5547 68.3 16.8613 68.3 16.104C 68.3 15.3467 68.3853 14.6533 68.556 14.024C 68.7373 13.3947 68.9773 12.856 69.276 12.408C 69.5747 11.9493 69.916 11.5973 70.3 11.352C 70.684 11.096 71.0787 10.968 71.484 10.968C 72.316 10.968 73.0467 11.4107 73.676 12.296ZM 73.084 13.24C 72.8707 12.8133 72.6253 12.4933 72.348 12.28C 72.0707 12.056 71.788 11.944 71.5 11.944C 71.2333 11.944 70.9667 12.04 70.7 12.232C 70.444 12.424 70.2147 12.6907 70.012 13.032C 69.8093 13.3733 69.644 13.7893 69.516 14.28C 69.3987 14.7707 69.34 15.3093 69.34 15.896C 69.34 16.5573 69.4147 17.1867 69.564 17.784L 73.084 13.24ZM 73.452 14.312L 69.932 18.792C 70.188 19.272 70.4547 19.6187 70.732 19.832C 71.02 20.0453 71.3027 20.152 71.58 20.152C 71.868 20.152 72.1347 20.0667 72.38 19.896C 72.636 19.7147 72.8547 19.4587 73.036 19.128C 73.228 18.7973 73.3773 18.3973 73.484 17.928C 73.6013 17.448 73.66 16.9093 73.66 16.312C 73.66 15.9387 73.644 15.5867 73.612 15.256C 73.58 14.9253 73.5267 14.6107 73.452 14.312Z"/>
<path id="path27_fill" d="M 68.748 12.584C 69.036 12.072 69.4253 11.6773 69.916 11.4C 70.4173 11.112 70.956 10.968 71.532 10.968C 71.9267 10.968 72.3 11.0427 72.652 11.192C 73.004 11.3307 73.3133 11.528 73.58 11.784C 73.8467 12.04 74.0547 12.3387 74.204 12.68C 74.3533 13.0213 74.428 13.384 74.428 13.768C 74.428 14.0773 74.38 14.3707 74.284 14.648C 74.1987 14.9253 74.0813 15.192 73.932 15.448C 73.7827 15.6933 73.6067 15.9333 73.404 16.168C 73.212 16.392 73.0093 16.6 72.796 16.792L 71.836 17.688C 71.6973 17.816 71.5427 17.9707 71.372 18.152C 71.2013 18.3227 71.0307 18.5093 70.86 18.712C 70.7 18.9147 70.54 19.128 70.38 19.352C 70.22 19.576 70.0813 19.8 69.964 20.024L 74.14 20.024C 74.1933 20.024 74.2467 20.0027 74.3 19.96C 74.364 19.9067 74.4227 19.88 74.476 19.88L 74.524 19.88L 74.524 21L 68.668 21L 68.668 20.296C 69.0627 19.5173 69.4893 18.8453 69.948 18.28C 70.4067 17.7147 70.8493 17.24 71.276 16.856L 72.044 16.152C 72.3107 15.9067 72.524 15.6827 72.684 15.48C 72.8547 15.2667 72.988 15.064 73.084 14.872C 73.18 14.68 73.244 14.4987 73.276 14.328C 73.308 14.1467 73.324 13.9653 73.324 13.784C 73.324 13.5493 73.276 13.3253 73.18 13.112C 73.084 12.888 72.9453 12.6907 72.764 12.52C 72.5933 12.3387 72.396 12.2 72.172 12.104C 71.9587 11.9973 71.7347 11.944 71.5 11.944C 71.2227 11.944 70.972 11.9867 70.748 12.072C 70.5347 12.1467 70.3427 12.2427 70.172 12.36C 70.012 12.4667 69.884 12.584 69.788 12.712C 69.692 12.8293 69.6387 12.936 69.628 13.032C 69.6067 13.128 69.5853 13.192 69.564 13.224L 68.748 12.584Z"/>
<path id="path28_fill" d="M 74.076 13.528C 74.076 14.008 73.9373 14.4453 73.66 14.84C 73.3933 15.2347 73.036 15.5173 72.588 15.688C 73.1 15.8693 73.5107 16.1947 73.82 16.664C 74.14 17.1333 74.3 17.6667 74.3 18.264C 74.3 18.6587 74.2253 19.032 74.076 19.384C 73.9373 19.736 73.7293 20.0453 73.452 20.312C 73.1853 20.5787 72.8547 20.792 72.46 20.952C 72.0653 21.1013 71.6173 21.176 71.116 21.176C 70.1347 21.176 69.2973 20.7973 68.604 20.04L 69.452 19.032C 69.4947 19.0747 69.5267 19.1493 69.548 19.256C 69.5693 19.352 69.6067 19.432 69.66 19.496L 69.884 19.704C 69.9693 19.7893 70.14 19.8853 70.396 19.992C 70.6627 20.0987 70.9347 20.152 71.212 20.152C 71.5 20.152 71.7667 20.0987 72.012 19.992C 72.2573 19.8853 72.4707 19.7413 72.652 19.56C 72.8333 19.368 72.972 19.1493 73.068 18.904C 73.1747 18.648 73.228 18.3813 73.228 18.104C 73.228 17.528 73.0093 17.0747 72.572 16.744C 72.1453 16.4027 71.58 16.232 70.876 16.232C 70.7907 16.232 70.7053 16.2373 70.62 16.248C 70.5453 16.248 70.4653 16.2533 70.38 16.264L 70.38 15.368C 70.8707 15.368 71.2813 15.32 71.612 15.224C 71.9427 15.1173 72.2093 14.9787 72.412 14.808C 72.6253 14.6373 72.7747 14.44 72.86 14.216C 72.956 13.9813 73.004 13.7307 73.004 13.464C 73.004 13.272 72.9613 13.0907 72.876 12.92C 72.7907 12.7387 72.6733 12.584 72.524 12.456C 72.3747 12.3173 72.1933 12.2053 71.98 12.12C 71.7667 12.0347 71.532 11.992 71.276 11.992C 70.5933 11.992 70.0227 12.248 69.564 12.76L 68.94 12.072C 69.5907 11.3573 70.3853 11 71.324 11C 71.708 11 72.0653 11.0693 72.396 11.208C 72.7373 11.336 73.0307 11.5173 73.276 11.752C 73.5213 11.9867 73.7133 12.2587 73.852 12.568C 74.0013 12.8667 74.076 13.1867 74.076 13.528Z"/>
<path id="path29_fill" d="M 72.508 11.016L 73.452 11.016L 73.452 17.256L 74.732 17.256L 74.732 18.248L 73.452 18.248L 73.452 21L 72.284 21L 72.284 18.232L 68.268 18.232L 68.268 17.416L 72.508 11.016ZM 72.3 12.792L 69.372 17.256L 72.3 17.256L 72.3 12.792Z"/>
<path id="path30_fill" d="M 35.284 11.016L 35.284 21L 34.18 21L 34.18 12.408L 32.164 13L 31.908 12.376L 34.516 11.016L 35.284 11.016Z"/>
<path id="path31_fill" d="M 31.748 12.584C 32.036 12.072 32.4253 11.6773 32.916 11.4C 33.4173 11.112 33.956 10.968 34.532 10.968C 34.9267 10.968 35.3 11.0427 35.652 11.192C 36.004 11.3307 36.3133 11.528 36.58 11.784C 36.8467 12.04 37.0547 12.3387 37.204 12.68C 37.3533 13.0213 37.428 13.384 37.428 13.768C 37.428 14.0773 37.38 14.3707 37.284 14.648C 37.1987 14.9253 37.0813 15.192 36.932 15.448C 36.7827 15.6933 36.6067 15.9333 36.404 16.168C 36.212 16.392 36.0093 16.6 35.796 16.792L 34.836 17.688C 34.6973 17.816 34.5427 17.9707 34.372 18.152C 34.2013 18.3227 34.0307 18.5093 33.86 18.712C 33.7 18.9147 33.54 19.128 33.38 19.352C 33.22 19.576 33.0813 19.8 32.964 20.024L 37.14 20.024C 37.1933 20.024 37.2467 20.0027 37.3 19.96C 37.364 19.9067 37.4227 19.88 37.476 19.88L 37.524 19.88L 37.524 21L 31.668 21L 31.668 20.296C 32.0627 19.5173 32.4893 18.8453 32.948 18.28C 33.4067 17.7147 33.8493 17.24 34.276 16.856L 35.044 16.152C 35.3107 15.9067 35.524 15.6827 35.684 15.48C 35.8547 15.2667 35.988 15.064 36.084 14.872C 36.18 14.68 36.244 14.4987 36.276 14.328C 36.308 14.1467 36.324 13.9653 36.324 13.784C 36.324 13.5493 36.276 13.3253 36.18 13.112C 36.084 12.888 35.9453 12.6907 35.764 12.52C 35.5933 12.3387 35.396 12.2 35.172 12.104C 34.9587 11.9973 34.7347 11.944 34.5 11.944C 34.2227 11.944 33.972 11.9867 33.748 12.072C 33.5347 12.1467 33.3427 12.2427 33.172 12.36C 33.012 12.4667 32.884 12.584 32.788 12.712C 32.692 12.8293 32.6387 12.936 32.628 13.032C 32.6067 13.128 32.5853 13.192 32.564 13.224L 31.748 12.584Z"/>
<path id="path32_fill" d="M 37.076 13.528C 37.076 14.008 36.9373 14.4453 36.66 14.84C 36.3933 15.2347 36.036 15.5173 35.588 15.688C 36.1 15.8693 36.5107 16.1947 36.82 16.664C 37.14 17.1333 37.3 17.6667 37.3 18.264C 37.3 18.6587 37.2253 19.032 37.076 19.384C 36.9373 19.736 36.7293 20.0453 36.452 20.312C 36.1853 20.5787 35.8547 20.792 35.46 20.952C 35.0653 21.1013 34.6173 21.176 34.116 21.176C 33.1347 21.176 32.2973 20.7973 31.604 20.04L 32.452 19.032C 32.4947 19.0747 32.5267 19.1493 32.548 19.256C 32.5693 19.352 32.6067 19.432 32.66 19.496L 32.884 19.704C 32.9693 19.7893 33.14 19.8853 33.396 19.992C 33.6627 20.0987 33.9347 20.152 34.212 20.152C 34.5 20.152 34.7667 20.0987 35.012 19.992C 35.2573 19.8853 35.4707 19.7413 35.652 19.56C 35.8333 19.368 35.972 19.1493 36.068 18.904C 36.1747 18.648 36.228 18.3813 36.228 18.104C 36.228 17.528 36.0093 17.0747 35.572 16.744C 35.1453 16.4027 34.58 16.232 33.876 16.232C 33.7907 16.232 33.7053 16.2373 33.62 16.248C 33.5453 16.248 33.4653 16.2533 33.38 16.264L 33.38 15.368C 33.8707 15.368 34.2813 15.32 34.612 15.224C 34.9427 15.1173 35.2093 14.9787 35.412 14.808C 35.6253 14.6373 35.7747 14.44 35.86 14.216C 35.956 13.9813 36.004 13.7307 36.004 13.464C 36.004 13.272 35.9613 13.0907 35.876 12.92C 35.7907 12.7387 35.6733 12.584 35.524 12.456C 35.3747 12.3173 35.1933 12.2053 34.98 12.12C 34.7667 12.0347 34.532 11.992 34.276 11.992C 33.5933 11.992 33.0227 12.248 32.564 12.76L 31.94 12.072C 32.5907 11.3573 33.3853 11 34.324 11C 34.708 11 35.0653 11.0693 35.396 11.208C 35.7373 11.336 36.0307 11.5173 36.276 11.752C 36.5213 11.9867 36.7133 12.2587 36.852 12.568C 37.0013 12.8667 37.076 13.1867 37.076 13.528Z"/>
<path id="path33_fill" d="M 35.508 11.016L 36.452 11.016L 36.452 17.256L 37.732 17.256L 37.732 18.248L 36.452 18.248L 36.452 21L 35.284 21L 35.284 18.232L 31.268 18.232L 31.268 17.416L 35.508 11.016ZM 35.3 12.792L 32.372 17.256L 35.3 17.256L 35.3 12.792Z"/>
<path id="path34_fill" d="M 32.196 11.032L 37.252 11.032L 37.252 12.04L 33.14 12.04L 32.98 14.904C 33.5027 14.648 34.0467 14.52 34.612 14.52C 35.0387 14.52 35.4333 14.6 35.796 14.76C 36.1693 14.9093 36.4893 15.1333 36.756 15.432C 37.0333 15.72 37.2467 16.072 37.396 16.488C 37.5453 16.8933 37.62 17.352 37.62 17.864C 37.62 18.376 37.54 18.84 37.38 19.256C 37.22 19.6613 36.996 20.008 36.708 20.296C 36.4307 20.584 36.1 20.8027 35.716 20.952C 35.3427 21.1013 34.932 21.176 34.484 21.176C 33.876 21.176 33.3107 21.0427 32.788 20.776C 32.276 20.5093 31.8547 20.1307 31.524 19.64L 32.516 18.904C 32.5693 18.936 32.596 19 32.596 19.096C 32.6067 19.192 32.6173 19.2507 32.628 19.272C 32.6707 19.3467 32.7453 19.4373 32.852 19.544C 32.9587 19.6507 33.092 19.752 33.252 19.848C 33.4227 19.944 33.6147 20.0293 33.828 20.104C 34.052 20.168 34.292 20.2 34.548 20.2C 34.804 20.2 35.0493 20.1467 35.284 20.04C 35.5187 19.9227 35.7213 19.7627 35.892 19.56C 36.0733 19.3573 36.2173 19.112 36.324 18.824C 36.4307 18.5253 36.484 18.1893 36.484 17.816C 36.484 17.4427 36.4307 17.112 36.324 16.824C 36.2173 16.5253 36.068 16.2747 35.876 16.072C 35.6947 15.8693 35.4813 15.7147 35.236 15.608C 34.9907 15.5013 34.724 15.448 34.436 15.448C 34.0947 15.448 33.7587 15.5333 33.428 15.704C 33.0973 15.864 32.8093 16.0933 32.564 16.392L 31.86 16.104L 32.196 11.032Z"/>
<path id="path35_fill" d="M 35.092 10.92C 35.924 10.92 36.6547 11.224 37.284 11.832L 36.5 12.68C 36.404 12.5947 36.34 12.504 36.308 12.408C 36.276 12.3013 36.2013 12.2267 36.084 12.184C 35.924 12.0773 35.7587 12.008 35.588 11.976C 35.428 11.9333 35.2733 11.912 35.124 11.912C 34.9107 11.912 34.66 11.9653 34.372 12.072C 34.0947 12.168 33.8333 12.3547 33.588 12.632C 33.3427 12.9093 33.1293 13.304 32.948 13.816C 32.7773 14.3173 32.6867 14.968 32.676 15.768C 32.9 15.3947 33.1987 15.1013 33.572 14.888C 33.956 14.6747 34.3613 14.568 34.788 14.568C 35.1613 14.568 35.5133 14.648 35.844 14.808C 36.1747 14.9573 36.4627 15.176 36.708 15.464C 36.964 15.752 37.1613 16.0987 37.3 16.504C 37.4493 16.8987 37.524 17.3413 37.524 17.832C 37.524 18.3227 37.4493 18.776 37.3 19.192C 37.1507 19.5973 36.948 19.9493 36.692 20.248C 36.436 20.536 36.132 20.76 35.78 20.92C 35.4387 21.08 35.0707 21.16 34.676 21.16C 34.1747 21.16 33.732 21.0533 33.348 20.84C 32.964 20.616 32.6387 20.3013 32.372 19.896C 32.116 19.4907 31.9187 19 31.78 18.424C 31.6413 17.8373 31.572 17.1813 31.572 16.456C 31.572 15.56 31.652 14.7707 31.812 14.088C 31.9827 13.3947 32.2227 12.8133 32.532 12.344C 32.8413 11.8747 33.2093 11.5227 33.636 11.288C 34.0733 11.0427 34.5587 10.92 35.092 10.92ZM 32.74 16.888C 32.7293 16.952 32.724 17.016 32.724 17.08C 32.724 17.144 32.724 17.208 32.724 17.272C 32.724 17.688 32.772 18.072 32.868 18.424C 32.9747 18.776 33.1187 19.08 33.3 19.336C 33.4813 19.592 33.6947 19.7947 33.94 19.944C 34.1853 20.0933 34.4467 20.168 34.724 20.168C 35.1827 20.168 35.5827 19.9707 35.924 19.576C 36.2653 19.1813 36.436 18.6053 36.436 17.848C 36.436 17.4427 36.3827 17.096 36.276 16.808C 36.1693 16.52 36.0307 16.2853 35.86 16.104C 35.7 15.912 35.5133 15.7733 35.3 15.688C 35.0973 15.592 34.8947 15.544 34.692 15.544C 34.308 15.544 33.94 15.6773 33.588 15.944C 33.236 16.2 32.9533 16.5147 32.74 16.888Z"/>
<path id="path36_fill" d="M 37.412 11.656C 36.74 13.192 36.1107 14.7333 35.524 16.28C 34.948 17.8267 34.4147 19.4 33.924 21L 32.66 21C 33.172 19.4747 33.7053 17.976 34.26 16.504C 34.8147 15.032 35.4013 13.56 36.02 12.088L 31.764 12.088L 31.764 11.032L 37.412 11.032L 37.412 11.656Z"/>
<path id="path37_fill" d="M 37.22 13.272C 37.22 13.752 37.076 14.2107 36.788 14.648C 36.5 15.0747 36.116 15.416 35.636 15.672C 36.212 15.9387 36.676 16.3227 37.028 16.824C 37.38 17.3147 37.556 17.848 37.556 18.424C 37.556 18.808 37.476 19.1707 37.316 19.512C 37.156 19.8427 36.9373 20.1307 36.66 20.376C 36.3933 20.6213 36.0733 20.8133 35.7 20.952C 35.3267 21.0907 34.9267 21.16 34.5 21.16C 34.0733 21.16 33.6733 21.0907 33.3 20.952C 32.9267 20.8133 32.6013 20.6267 32.324 20.392C 32.0573 20.1467 31.844 19.864 31.684 19.544C 31.5347 19.2133 31.46 18.8613 31.46 18.488C 31.46 17.912 31.6413 17.3733 32.004 16.872C 32.3667 16.3707 32.852 15.9813 33.46 15.704C 33.0013 15.4693 32.6333 15.144 32.356 14.728C 32.0787 14.3013 31.94 13.848 31.94 13.368C 31.94 13.0267 32.0093 12.7067 32.148 12.408C 32.2867 12.1093 32.4787 11.848 32.724 11.624C 32.9693 11.4 33.252 11.224 33.572 11.096C 33.892 10.968 34.2387 10.904 34.612 10.904C 34.9853 10.904 35.332 10.968 35.652 11.096C 35.972 11.2133 36.244 11.384 36.468 11.608C 36.7027 11.8213 36.884 12.072 37.012 12.36C 37.1507 12.648 37.22 12.952 37.22 13.272ZM 34.292 16.152C 33.812 16.3547 33.412 16.6587 33.092 17.064C 32.772 17.4587 32.612 17.896 32.612 18.376C 32.612 18.6213 32.66 18.8507 32.756 19.064C 32.8627 19.2773 33.0013 19.464 33.172 19.624C 33.3533 19.784 33.556 19.912 33.78 20.008C 34.0147 20.104 34.2653 20.152 34.532 20.152C 34.7987 20.152 35.044 20.1093 35.268 20.024C 35.5027 19.928 35.7053 19.8053 35.876 19.656C 36.0467 19.496 36.18 19.3147 36.276 19.112C 36.372 18.8987 36.42 18.6693 36.42 18.424C 36.42 17.9333 36.228 17.4853 35.844 17.08C 35.46 16.664 34.9427 16.3547 34.292 16.152ZM 33.284 14.136C 33.412 14.3493 33.5773 14.536 33.78 14.696C 33.9933 14.8453 34.2333 14.9893 34.5 15.128L 34.772 15.272C 35.1667 15.0587 35.492 14.7707 35.748 14.408C 36.004 14.0453 36.132 13.6773 36.132 13.304C 36.132 13.112 36.0893 12.9307 36.004 12.76C 35.9293 12.5893 35.8173 12.4347 35.668 12.296C 35.5293 12.1573 35.364 12.0507 35.172 11.976C 34.98 11.8907 34.772 11.848 34.548 11.848C 34.324 11.848 34.116 11.8907 33.924 11.976C 33.7427 12.0507 33.5827 12.152 33.444 12.28C 33.3053 12.408 33.1987 12.5573 33.124 12.728C 33.0493 12.8987 33.012 13.0747 33.012 13.256C 33.012 13.576 33.1027 13.8693 33.284 14.136Z"/>
<path id="path38_stroke" d="M 0 0L 291 0L 291 -4L 0 -4L 0 0Z"/>
<path id="path39_fill" d="M 147.676 12.296C 147.985 12.712 148.231 13.256 148.412 13.928C 148.604 14.6 148.7 15.352 148.7 16.184C 148.7 17.0267 148.604 17.7627 148.412 18.392C 148.231 19.0107 147.985 19.528 147.676 19.944C 147.377 20.36 147.036 20.6693 146.652 20.872C 146.268 21.0747 145.879 21.176 145.484 21.176C 145.079 21.176 144.684 21.0533 144.3 20.808C 143.916 20.5627 143.575 20.2213 143.276 19.784C 142.977 19.336 142.737 18.8027 142.556 18.184C 142.385 17.5547 142.3 16.8613 142.3 16.104C 142.3 15.3467 142.385 14.6533 142.556 14.024C 142.737 13.3947 142.977 12.856 143.276 12.408C 143.575 11.9493 143.916 11.5973 144.3 11.352C 144.684 11.096 145.079 10.968 145.484 10.968C 146.316 10.968 147.047 11.4107 147.676 12.296ZM 147.084 13.24C 146.871 12.8133 146.625 12.4933 146.348 12.28C 146.071 12.056 145.788 11.944 145.5 11.944C 145.233 11.944 144.967 12.04 144.7 12.232C 144.444 12.424 144.215 12.6907 144.012 13.032C 143.809 13.3733 143.644 13.7893 143.516 14.28C 143.399 14.7707 143.34 15.3093 143.34 15.896C 143.34 16.5573 143.415 17.1867 143.564 17.784L 147.084 13.24ZM 147.452 14.312L 143.932 18.792C 144.188 19.272 144.455 19.6187 144.732 19.832C 145.02 20.0453 145.303 20.152 145.58 20.152C 145.868 20.152 146.135 20.0667 146.38 19.896C 146.636 19.7147 146.855 19.4587 147.036 19.128C 147.228 18.7973 147.377 18.3973 147.484 17.928C 147.601 17.448 147.66 16.9093 147.66 16.312C 147.66 15.9387 147.644 15.5867 147.612 15.256C 147.58 14.9253 147.527 14.6107 147.452 14.312Z"/>
<path id="path40_fill" d="M 146.284 11.016L 146.284 21L 145.18 21L 145.18 12.408L 143.164 13L 142.908 12.376L 145.516 11.016L 146.284 11.016Z"/>
<path id="path41_stroke" d="M 0.00197756 1.0023L 0.994173 0.998379L 0.990218 -0.00161307L -0.00197756 0.00231121L 0.00197756 1.0023ZM 2.97856 0.990531L 4.96295 0.982682L 4.959 -0.0173102L 2.97461 -0.00946162L 2.97856 0.990531ZM 6.94734 0.974833L 8.93173 0.966985L 8.92778 -0.0330073L 6.94339 -0.0251587L 6.94734 0.974833ZM 10.9161 0.959136L 12.9005 0.951288L 12.8966 -0.0487044L 10.9122 -0.0408558L 10.9161 0.959136ZM 14.8849 0.943439L 16.8693 0.935591L 16.8653 -0.0644015L 14.881 -0.0565529L 14.8849 0.943439ZM 18.8537 0.927742L 20.8381 0.919894L 20.8341 -0.0800986L 18.8497 -0.07225L 18.8537 0.927742ZM 22.8225 0.912045L 24.8069 0.904196L 24.8029 -0.0957957L 22.8185 -0.0879471L 22.8225 0.912045ZM 26.7912 0.896348L 28.7756 0.888499L 28.7717 -0.111493L 26.7873 -0.103644L 26.7912 0.896348ZM 30.76 0.880651L 32.7444 0.872802L 32.7405 -0.12719L 30.7561 -0.119341L 30.76 0.880651ZM 34.7288 0.864954L 36.7132 0.857105L 36.7092 -0.142887L 34.7249 -0.135038L 34.7288 0.864954ZM 38.6976 0.849257L 40.682 0.841408L 40.678 -0.158584L 38.6936 -0.150736L 38.6976 0.849257ZM 42.6664 0.83356L 44.6508 0.825711L 44.6468 -0.174281L 42.6624 -0.166433L 42.6664 0.83356ZM 46.6352 0.817862L 48.6195 0.810014L 48.6156 -0.189978L 46.6312 -0.18213L 46.6352 0.817862ZM 50.6039 0.802165L 52.5883 0.794317L 52.5844 -0.205675L 50.6 -0.197827L 50.6039 0.802165ZM 54.5727 0.786468L 56.5571 0.77862L 56.5532 -0.221373L 54.5688 -0.213524L 54.5727 0.786468ZM 58.5415 0.770771L 60.5259 0.762923L 60.5219 -0.23707L 58.5375 -0.229221L 58.5415 0.770771ZM 62.5103 0.755074L 64.4947 0.747225L 64.4907 -0.252767L 62.5063 -0.244918L 62.5103 0.755074ZM 66.4791 0.739377L 68.4634 0.731528L 68.4595 -0.268464L 66.4751 -0.260615L 66.4791 0.739377ZM 70.4478 0.72368L 72.4322 0.715831L 72.4283 -0.284161L 70.4439 -0.276312L 70.4478 0.72368ZM 74.4166 0.707983L 76.401 0.700134L 76.3971 -0.299858L 74.4127 -0.292009L 74.4166 0.707983ZM 78.3854 0.692286L 80.3698 0.684437L 80.3658 -0.315555L 78.3814 -0.307707L 78.3854 0.692286ZM 82.3542 0.676588L 84.3386 0.66874L 84.3346 -0.331252L 82.3502 -0.323404L 82.3542 0.676588ZM 86.323 0.660891L 88.3074 0.653043L 88.3034 -0.346949L 86.319 -0.339101L 86.323 0.660891ZM 90.2917 0.645194L 92.2761 0.637346L 92.2722 -0.362646L 90.2878 -0.354798L 90.2917 0.645194ZM 94.2605 0.629497L 96.2449 0.621649L 96.241 -0.378344L 94.2566 -0.370495L 94.2605 0.629497ZM 98.2293 0.6138L 100.214 0.605952L 100.21 -0.394041L 98.2254 -0.386192L 98.2293 0.6138ZM 102.198 0.598103L 104.182 0.590254L 104.179 -0.409738L 102.194 -0.401889L 102.198 0.598103ZM 106.167 0.582406L 108.151 0.574557L 108.147 -0.425435L 106.163 -0.417586L 106.167 0.582406ZM 110.136 0.566709L 112.12 0.55886L 112.116 -0.441132L 110.132 -0.433283L 110.136 0.566709ZM 114.104 0.551012L 116.089 0.543163L 116.085 -0.456829L 114.1 -0.448981L 114.104 0.551012ZM 118.073 0.535315L 120.058 0.527466L 120.054 -0.472526L 118.069 -0.464678L 118.073 0.535315ZM 122.042 0.519617L 124.026 0.511769L 124.022 -0.488223L 122.038 -0.480375L 122.042 0.519617ZM 126.011 0.50392L 127.003 0.499996L 126.999 -0.499996L 126.007 -0.496072L 126.011 0.50392Z"/>
<path id="path42_stroke" d="M 0.5 42L 0.5 0L -0.5 0L -0.5 42L 0.5 42Z"/>
<path id="path43_stroke" d="M -0.5 0L -0.5 3.03409L 0.5 3.03409L 0.5 0L -0.5 0ZM -0.5 5.05682L -0.5 11.125L 0.5 11.125L 0.5 5.05682L -0.5 5.05682ZM -0.5 13.1477L -0.5 19.2159L 0.5 19.2159L 0.5 13.1477L -0.5 13.1477ZM -0.5 21.2386L -0.5 27.3068L 0.5 27.3068L 0.5 21.2386L -0.5 21.2386ZM -0.5 29.3295L -0.5 35.3977L 0.5 35.3977L 0.5 29.3295L -0.5 29.3295ZM -0.5 37.4205L -0.5 43.4886L 0.5 43.4886L 0.5 37.4205L -0.5 37.4205ZM -0.5 45.5114L -0.5 51.5795L 0.5 51.5795L 0.5 45.5114L -0.5 45.5114ZM -0.5 53.6023L -0.5 59.6705L 0.5 59.6705L 0.5 53.6023L -0.5 53.6023ZM -0.5 61.6932L -0.5 67.7614L 0.5 67.7614L 0.5 61.6932L -0.5 61.6932ZM -0.5 69.7841L -0.5 75.8523L 0.5 75.8523L 0.5 69.7841L -0.5 69.7841ZM -0.5 77.875L -0.5 83.9432L 0.5 83.9432L 0.5 77.875L -0.5 77.875ZM -0.5 85.9659L -0.5 92.0341L 0.5 92.0341L 0.5 85.9659L -0.5 85.9659ZM -0.5 94.0568L -0.5 100.125L 0.5 100.125L 0.5 94.0568L -0.5 94.0568ZM -0.5 102.148L -0.5 108.216L 0.5 108.216L 0.5 102.148L -0.5 102.148ZM -0.5 110.239L -0.5 116.307L 0.5 116.307L 0.5 110.239L -0.5 110.239ZM -0.5 118.33L -0.5 124.398L 0.5 124.398L 0.5 118.33L -0.5 118.33ZM -0.5 126.42L -0.5 132.489L 0.5 132.489L 0.5 126.42L -0.5 126.42ZM -0.5 134.511L -0.5 140.58L 0.5 140.58L 0.5 134.511L -0.5 134.511ZM -0.5 142.602L -0.5 148.67L 0.5 148.67L 0.5 142.602L -0.5 142.602ZM -0.5 150.693L -0.5 156.761L 0.5 156.761L 0.5 150.693L -0.5 150.693ZM -0.5 158.784L -0.5 164.852L 0.5 164.852L 0.5 158.784L -0.5 158.784ZM -0.5 166.875L -0.5 172.943L 0.5 172.943L 0.5 166.875L -0.5 166.875ZM -0.5 174.966L -0.5 178L 0.5 178L 0.5 174.966L -0.5 174.966Z"/>
<path id="path44_stroke" d="M -0.5 0L -0.5 0.982759L 0.5 0.982759L 0.5 0L -0.5 0ZM -0.5 2.94828L -0.5 4.91379L 0.5 4.91379L 0.5 2.94828L -0.5 2.94828ZM -0.5 6.87931L -0.5 8.84483L 0.5 8.84483L 0.5 6.87931L -0.5 6.87931ZM -0.5 10.8103L -0.5 12.7759L 0.5 12.7759L 0.5 10.8103L -0.5 10.8103ZM -0.5 14.7414L -0.5 16.7069L 0.5 16.7069L 0.5 14.7414L -0.5 14.7414ZM -0.5 18.6724L -0.5 20.6379L 0.5 20.6379L 0.5 18.6724L -0.5 18.6724ZM -0.5 22.6034L -0.5 24.569L 0.5 24.569L 0.5 22.6034L -0.5 22.6034ZM -0.5 26.5345L -0.5 28.5L 0.5 28.5L 0.5 26.5345L -0.5 26.5345ZM -0.5 30.4655L -0.5 32.431L 0.5 32.431L 0.5 30.4655L -0.5 30.4655ZM -0.5 34.3966L -0.5 36.3621L 0.5 36.3621L 0.5 34.3966L -0.5 34.3966ZM -0.5 38.3276L -0.5 40.2931L 0.5 40.2931L 0.5 38.3276L -0.5 38.3276ZM -0.5 42.2586L -0.5 44.2241L 0.5 44.2241L 0.5 42.2586L -0.5 42.2586ZM -0.5 46.1897L -0.5 48.1552L 0.5 48.1552L 0.5 46.1897L -0.5 46.1897ZM -0.5 50.1207L -0.5 52.0862L 0.5 52.0862L 0.5 50.1207L -0.5 50.1207ZM -0.5 54.0517L -0.5 56.0172L 0.5 56.0172L 0.5 54.0517L -0.5 54.0517ZM -0.5 57.9828L -0.5 59.9483L 0.5 59.9483L 0.5 57.9828L -0.5 57.9828ZM -0.5 61.9138L -0.5 63.8793L 0.5 63.8793L 0.5 61.9138L -0.5 61.9138ZM -0.5 65.8448L -0.5 67.8103L 0.5 67.8103L 0.5 65.8448L -0.5 65.8448ZM -0.5 69.7759L -0.5 71.7414L 0.5 71.7414L 0.5 69.7759L -0.5 69.7759ZM -0.5 73.7069L -0.5 75.6724L 0.5 75.6724L 0.5 73.7069L -0.5 73.7069ZM -0.5 77.6379L -0.5 79.6034L 0.5 79.6034L 0.5 77.6379L -0.5 77.6379ZM -0.5 81.569L -0.5 83.5345L 0.5 83.5345L 0.5 81.569L -0.5 81.569ZM -0.5 85.5L -0.5 87.4655L 0.5 87.4655L 0.5 85.5L -0.5 85.5ZM -0.5 89.431L -0.5 91.3966L 0.5 91.3966L 0.5 89.431L -0.5 89.431ZM -0.5 93.3621L -0.5 95.3276L 0.5 95.3276L 0.5 93.3621L -0.5 93.3621ZM -0.5 97.2931L -0.5 99.2586L 0.5 99.2586L 0.5 97.2931L -0.5 97.2931ZM -0.5 101.224L -0.5 103.19L 0.5 103.19L 0.5 101.224L -0.5 101.224ZM -0.5 105.155L -0.5 107.121L 0.5 107.121L 0.5 105.155L -0.5 105.155ZM -0.5 109.086L -0.5 111.052L 0.5 111.052L 0.5 109.086L -0.5 109.086ZM -0.5 113.017L -0.5 114L 0.5 114L 0.5 113.017L -0.5 113.017Z"/>
<path id="path45_stroke" d="M 0.5 228L 0.5 0L -0.5 0L -0.5 228L 0.5 228Z"/>
<path id="path46_stroke" d="M -0.5 0L -0.5 3.03947L 0.5 3.03947L 0.5 0L -0.5 0ZM -0.5 5.06579L -0.5 11.1447L 0.5 11.1447L 0.5 5.06579L -0.5 5.06579ZM -0.5 13.1711L -0.5 19.25L 0.5 19.25L 0.5 13.1711L -0.5 13.1711ZM -0.5 21.2763L -0.5 27.3553L 0.5 27.3553L 0.5 21.2763L -0.5 21.2763ZM -0.5 29.3816L -0.5 35.4605L 0.5 35.4605L 0.5 29.3816L -0.5 29.3816ZM -0.5 37.4868L -0.5 43.5658L 0.5 43.5658L 0.5 37.4868L -0.5 37.4868ZM -0.5 45.5921L -0.5 51.6711L 0.5 51.6711L 0.5 45.5921L -0.5 45.5921ZM -0.5 53.6974L -0.5 59.7763L 0.5 59.7763L 0.5 53.6974L -0.5 53.6974ZM -0.5 61.8026L -0.5 67.8816L 0.5 67.8816L 0.5 61.8026L -0.5 61.8026ZM -0.5 69.9079L -0.5 75.9868L 0.5 75.9868L 0.5 69.9079L -0.5 69.9079ZM -0.5 78.0132L -0.5 84.0921L 0.5 84.0921L 0.5 78.0132L -0.5 78.0132ZM -0.5 86.1184L -0.5 92.1974L 0.5 92.1974L 0.5 86.1184L -0.5 86.1184ZM -0.5 94.2237L -0.5 100.303L 0.5 100.303L 0.5 94.2237L -0.5 94.2237ZM -0.5 102.329L -0.5 108.408L 0.5 108.408L 0.5 102.329L -0.5 102.329ZM -0.5 110.434L -0.5 116.513L 0.5 116.513L 0.5 110.434L -0.5 110.434ZM -0.5 118.539L -0.5 124.618L 0.5 124.618L 0.5 118.539L -0.5 118.539ZM -0.5 126.645L -0.5 132.724L 0.5 132.724L 0.5 126.645L -0.5 126.645ZM -0.5 134.75L -0.5 140.829L 0.5 140.829L 0.5 134.75L -0.5 134.75ZM -0.5 142.855L -0.5 148.934L 0.5 148.934L 0.5 142.855L -0.5 142.855ZM -0.5 150.961L -0.5 154L 0.5 154L 0.5 150.961L -0.5 150.961Z"/>
<path id="path47_stroke" d="M 0.5 194L 0.5 0L -0.5 0L -0.5 194L 0.5 194Z"/>
<path id="path48_fill" d="M 4.07227 11.1934C 5.80664 11.1934 7.03711 9.98047 7.03711 8.28125C 7.03711 6.64062 5.87109 5.45117 4.25977 5.45117C 3.25195 5.45117 2.42578 5.93164 2.00977 6.75195L 1.91602 6.75195C 1.97461 4.50195 2.75391 3.2832 4.13086 3.2832C 4.96289 3.2832 5.60156 3.76367 5.83008 4.55469L 6.91406 4.55469C 6.64453 3.19531 5.57812 2.3457 4.14258 2.3457C 2.07422 2.3457 0.890625 4.00977 0.890625 6.91602C 0.890625 7.84766 1.02539 8.62695 1.30078 9.27148C 1.82812 10.5137 2.80078 11.1934 4.07227 11.1934ZM 4.06055 10.2676C 2.97656 10.2676 2.15039 9.41211 2.15039 8.28125C 2.15039 7.16211 2.95312 6.36523 4.07227 6.36523C 5.19141 6.36523 5.9707 7.16211 5.9707 8.31641C 5.9707 9.42383 5.14453 10.2676 4.06055 10.2676ZM 12.5977 11L 13.6289 11L 13.6289 9.24805L 14.8301 9.24805L 14.8301 8.30469L 13.6289 8.30469L 13.6289 2.54492L 12.0996 2.54492C 10.5762 4.82422 9.23438 6.94531 8.47852 8.28711L 8.47852 9.24805L 12.5977 9.24805L 12.5977 11ZM 9.55664 8.24023C 10.5645 6.5293 11.666 4.7832 12.5332 3.52344L 12.6035 3.52344L 12.6035 8.31055L 9.55664 8.31055L 9.55664 8.24023ZM 20.2676 8.07617L 20.2676 7.12109L 16.4238 7.12109L 16.4238 8.07617L 20.2676 8.07617ZM 25.2656 11.1113C 26.8652 11.1113 27.9141 9.81641 27.9141 7.8418C 27.9141 5.85547 26.8711 4.57227 25.2656 4.57227C 24.3984 4.57227 23.6309 5 23.2852 5.67969L 23.1914 5.67969L 23.1914 2.17578L 22.1836 2.17578L 22.1836 11L 23.1445 11L 23.1445 9.99219L 23.2383 9.99219C 23.6367 10.6953 24.3867 11.1113 25.2656 11.1113ZM 25.0312 5.48047C 26.1855 5.48047 26.8711 6.36523 26.8711 7.8418C 26.8711 9.31836 26.1855 10.2031 25.0312 10.2031C 23.8828 10.2031 23.168 9.30078 23.168 7.8418C 23.168 6.38281 23.8828 5.48047 25.0312 5.48047ZM 29.5195 11L 30.5273 11L 30.5273 4.68359L 29.5195 4.68359L 29.5195 11ZM 30.0234 3.40039C 30.4102 3.40039 30.7266 3.08398 30.7266 2.69727C 30.7266 2.31055 30.4102 1.99414 30.0234 1.99414C 29.6367 1.99414 29.3203 2.31055 29.3203 2.69727C 29.3203 3.08398 29.6367 3.40039 30.0234 3.40039ZM 32.8711 3.04883L 32.8711 4.68359L 31.8516 4.68359L 31.8516 5.52734L 32.8711 5.52734L 32.8711 9.35938C 32.8711 10.5664 33.3926 11.0469 34.6934 11.0469C 34.8926 11.0469 35.0859 11.0234 35.2852 10.9883L 35.2852 10.1387C 35.0977 10.1562 34.998 10.1621 34.8164 10.1621C 34.1602 10.1621 33.8789 9.8457 33.8789 9.10156L 33.8789 5.52734L 35.2852 5.52734L 35.2852 4.68359L 33.8789 4.68359L 33.8789 3.04883L 32.8711 3.04883Z"/>
<path id="path49_fill" d="M 3.11133 7.10352L 4.18359 7.10352C 5.38477 7.10352 6.12891 7.71289 6.12891 8.69141C 6.12891 9.61719 5.33789 10.2793 4.22461 10.2793C 3.13477 10.2793 2.37305 9.69922 2.2793 8.79688L 1.25977 8.79688C 1.33594 10.2441 2.51953 11.1992 4.23633 11.1992C 5.90625 11.1992 7.21289 10.1152 7.21289 8.7207C 7.21289 7.56641 6.51562 6.76953 5.36719 6.62305L 5.36719 6.5293C 6.29297 6.30664 6.84961 5.56836 6.84961 4.56055C 6.84961 3.33008 5.67188 2.3457 4.19531 2.3457C 2.58398 2.3457 1.53516 3.24805 1.42969 4.71289L 2.45508 4.71289C 2.54297 3.80469 3.18164 3.26562 4.1543 3.26562C 5.12695 3.26562 5.77734 3.83984 5.77734 4.70117C 5.77734 5.58008 5.09766 6.20117 4.13672 6.20117L 3.11133 6.20117L 3.11133 7.10352ZM 8.85352 4.92383L 8.85352 4.92969L 9.87305 4.92969L 9.87305 4.92383C 9.87305 3.92773 10.541 3.26562 11.5312 3.26562C 12.4629 3.26562 13.1836 3.91602 13.1836 4.75977C 13.1836 5.43945 12.9199 5.89648 11.8301 7.08008L 8.90625 10.2734L 8.90625 11L 14.3789 11L 14.3789 10.0508L 10.418 10.0508L 10.418 9.95703L 12.4512 7.77148C 13.8398 6.2832 14.2383 5.59766 14.2383 4.71875C 14.2383 3.37695 13.0781 2.3457 11.5605 2.3457C 9.99023 2.3457 8.85352 3.42383 8.85352 4.92383ZM 19.9688 8.07617L 19.9688 7.12109L 16.125 7.12109L 16.125 8.07617L 19.9688 8.07617ZM 24.9668 11.1113C 26.5664 11.1113 27.6152 9.81641 27.6152 7.8418C 27.6152 5.85547 26.5723 4.57227 24.9668 4.57227C 24.0996 4.57227 23.332 5 22.9863 5.67969L 22.8926 5.67969L 22.8926 2.17578L 21.8848 2.17578L 21.8848 11L 22.8457 11L 22.8457 9.99219L 22.9395 9.99219C 23.3379 10.6953 24.0879 11.1113 24.9668 11.1113ZM 24.7324 5.48047C 25.8867 5.48047 26.5723 6.36523 26.5723 7.8418C 26.5723 9.31836 25.8867 10.2031 24.7324 10.2031C 23.584 10.2031 22.8691 9.30078 22.8691 7.8418C 22.8691 6.38281 23.584 5.48047 24.7324 5.48047ZM 29.2207 11L 30.2285 11L 30.2285 4.68359L 29.2207 4.68359L 29.2207 11ZM 29.7246 3.40039C 30.1113 3.40039 30.4277 3.08398 30.4277 2.69727C 30.4277 2.31055 30.1113 1.99414 29.7246 1.99414C 29.3379 1.99414 29.0215 2.31055 29.0215 2.69727C 29.0215 3.08398 29.3379 3.40039 29.7246 3.40039ZM 32.5723 3.04883L 32.5723 4.68359L 31.5527 4.68359L 31.5527 5.52734L 32.5723 5.52734L 32.5723 9.35938C 32.5723 10.5664 33.0938 11.0469 34.3945 11.0469C 34.5938 11.0469 34.7871 11.0234 34.9863 10.9883L 34.9863 10.1387C 34.7988 10.1562 34.6992 10.1621 34.5176 10.1621C 33.8613 10.1621 33.5801 9.8457 33.5801 9.10156L 33.5801 5.52734L 34.9863 5.52734L 34.9863 4.68359L 33.5801 4.68359L 33.5801 3.04883L 32.5723 3.04883Z"/>
<path id="path50_fill" d="M 3.16602 11L 4.2207 11L 4.2207 2.54492L 3.17188 2.54492L 0.921875 4.16211L 0.921875 5.27539L 3.07227 3.7168L 3.16602 3.7168L 3.16602 11ZM 9.73438 11.1934C 11.4688 11.1934 12.6992 9.98047 12.6992 8.28125C 12.6992 6.64062 11.5332 5.45117 9.92188 5.45117C 8.91406 5.45117 8.08789 5.93164 7.67188 6.75195L 7.57812 6.75195C 7.63672 4.50195 8.41602 3.2832 9.79297 3.2832C 10.625 3.2832 11.2637 3.76367 11.4922 4.55469L 12.5762 4.55469C 12.3066 3.19531 11.2402 2.3457 9.80469 2.3457C 7.73633 2.3457 6.55273 4.00977 6.55273 6.91602C 6.55273 7.84766 6.6875 8.62695 6.96289 9.27148C 7.49023 10.5137 8.46289 11.1934 9.73438 11.1934ZM 9.72266 10.2676C 8.63867 10.2676 7.8125 9.41211 7.8125 8.28125C 7.8125 7.16211 8.61523 6.36523 9.73438 6.36523C 10.8535 6.36523 11.6328 7.16211 11.6328 8.31641C 11.6328 9.42383 10.8066 10.2676 9.72266 10.2676ZM 18.207 8.07617L 18.207 7.12109L 14.3633 7.12109L 14.3633 8.07617L 18.207 8.07617ZM 23.2051 11.1113C 24.8047 11.1113 25.8535 9.81641 25.8535 7.8418C 25.8535 5.85547 24.8105 4.57227 23.2051 4.57227C 22.3379 4.57227 21.5703 5 21.2246 5.67969L 21.1309 5.67969L 21.1309 2.17578L 20.123 2.17578L 20.123 11L 21.084 11L 21.084 9.99219L 21.1777 9.99219C 21.5762 10.6953 22.3262 11.1113 23.2051 11.1113ZM 22.9707 5.48047C 24.125 5.48047 24.8105 6.36523 24.8105 7.8418C 24.8105 9.31836 24.125 10.2031 22.9707 10.2031C 21.8223 10.2031 21.1074 9.30078 21.1074 7.8418C 21.1074 6.38281 21.8223 5.48047 22.9707 5.48047ZM 27.459 11L 28.4668 11L 28.4668 4.68359L 27.459 4.68359L 27.459 11ZM 27.9629 3.40039C 28.3496 3.40039 28.666 3.08398 28.666 2.69727C 28.666 2.31055 28.3496 1.99414 27.9629 1.99414C 27.5762 1.99414 27.2598 2.31055 27.2598 2.69727C 27.2598 3.08398 27.5762 3.40039 27.9629 3.40039ZM 30.8105 3.04883L 30.8105 4.68359L 29.791 4.68359L 29.791 5.52734L 30.8105 5.52734L 30.8105 9.35938C 30.8105 10.5664 31.332 11.0469 32.6328 11.0469C 32.832 11.0469 33.0254 11.0234 33.2246 10.9883L 33.2246 10.1387C 33.0371 10.1562 32.9375 10.1621 32.7559 10.1621C 32.0996 10.1621 31.8184 9.8457 31.8184 9.10156L 31.8184 5.52734L 33.2246 5.52734L 33.2246 4.68359L 31.8184 4.68359L 31.8184 3.04883L 30.8105 3.04883Z"/>
<path id="path51_fill" d="M 4.32812 11.1992C 6.12109 11.1992 7.375 10.1855 7.375 8.73828C 7.375 7.63672 6.67773 6.78125 5.61719 6.58203L 5.61719 6.48828C 6.49023 6.24805 7.0293 5.52734 7.0293 4.60156C 7.0293 3.2832 5.91016 2.3457 4.32812 2.3457C 2.74609 2.3457 1.62695 3.2832 1.62695 4.60156C 1.62695 5.52148 2.17773 6.25391 3.03906 6.48828L 3.03906 6.58203C 1.97852 6.78125 1.28125 7.63672 1.28125 8.73828C 1.28125 10.1855 2.53516 11.1992 4.32812 11.1992ZM 4.32812 10.2969C 3.15625 10.2969 2.34766 9.62891 2.34766 8.66211C 2.34766 7.69531 3.15625 7.02734 4.32812 7.02734C 5.5 7.02734 6.30859 7.69531 6.30859 8.66211C 6.30859 9.62891 5.5 10.2969 4.32812 10.2969ZM 4.32812 6.13672C 3.33203 6.13672 2.66406 5.5625 2.66406 4.70117C 2.66406 3.82812 3.32617 3.24805 4.32812 3.24805C 5.33008 3.24805 5.99219 3.82812 5.99219 4.70117C 5.99219 5.5625 5.32422 6.13672 4.32812 6.13672ZM 12.9121 8.07617L 12.9121 7.12109L 9.06836 7.12109L 9.06836 8.07617L 12.9121 8.07617ZM 17.9102 11.1113C 19.5098 11.1113 20.5586 9.81641 20.5586 7.8418C 20.5586 5.85547 19.5156 4.57227 17.9102 4.57227C 17.043 4.57227 16.2754 5 15.9297 5.67969L 15.8359 5.67969L 15.8359 2.17578L 14.8281 2.17578L 14.8281 11L 15.7891 11L 15.7891 9.99219L 15.8828 9.99219C 16.2812 10.6953 17.0312 11.1113 17.9102 11.1113ZM 17.6758 5.48047C 18.8301 5.48047 19.5156 6.36523 19.5156 7.8418C 19.5156 9.31836 18.8301 10.2031 17.6758 10.2031C 16.5273 10.2031 15.8125 9.30078 15.8125 7.8418C 15.8125 6.38281 16.5273 5.48047 17.6758 5.48047ZM 22.1641 11L 23.1719 11L 23.1719 4.68359L 22.1641 4.68359L 22.1641 11ZM 22.668 3.40039C 23.0547 3.40039 23.3711 3.08398 23.3711 2.69727C 23.3711 2.31055 23.0547 1.99414 22.668 1.99414C 22.2812 1.99414 21.9648 2.31055 21.9648 2.69727C 21.9648 3.08398 22.2812 3.40039 22.668 3.40039ZM 25.5156 3.04883L 25.5156 4.68359L 24.4961 4.68359L 24.4961 5.52734L 25.5156 5.52734L 25.5156 9.35938C 25.5156 10.5664 26.0371 11.0469 27.3379 11.0469C 27.5371 11.0469 27.7305 11.0234 27.9297 10.9883L 27.9297 10.1387C 27.7422 10.1562 27.6426 10.1621 27.4609 10.1621C 26.8047 10.1621 26.5234 9.8457 26.5234 9.10156L 26.5234 5.52734L 27.9297 5.52734L 27.9297 4.68359L 26.5234 4.68359L 26.5234 3.04883L 25.5156 3.04883Z"/>
<path id="path52_stroke" d="M 0 0L 41 0L 41 -2L 0 -2L 0 0Z"/>
<path id="path53_stroke" d="M 0 0L 93 0L 93 -2L 0 -2L 0 0Z"/>
</defs>
</svg>
